STARTFONT 2.1
FONT -DEC-Present Bullets-Medium-R-Normal--72-720-100-100-P-952-DEC-FontSpecific
SIZE 72 100 100
FONTBOUNDINGBOX 129 90 0 -9

STARTPROPERTIES 10
COPYRIGHT "Copyright 1990,  Digital Equipment Corporation Created by Loree Nelson, The Artis Consultancy"
POINT_SIZE 720
WEIGHT 10
RESOLUTION_X 100
RESOLUTION_Y 100
X_HEIGHT 71
QUAD_WIDTH 87
DEFAULT_CHAR 0
FONT_DESCENT 10
FONT_ASCENT 89
ENDPROPERTIES

CHARS 59

STARTCHAR space
ENCODING 32
SWIDTH 250 0
DWIDTH 25 0
BBX 0 0 0 0
BITMAP
ENDCHAR

STARTCHAR A
ENCODING 65
SWIDTH 704 0
DWIDTH 70 0
BBX 50 68 0 10
BITMAP
00000000001800
00000000003800
00000000007800
00000000007800
0000000000F800
0000000001F800
0000000001F800
0000000003F800
0000000003FC00
0000000007FC00
0000000007FC00
000000000FFC00
000000000FFC00
000000001FFE00
000000001FFE00
000000001FFE00
000000003FFC00
000000003FF800
000000007FF000
000000007FE000
000000007FC000
00000000FFC000
FFFFFFFFFFFFC0
FFFFFFFFFFFFC0
C0000001FF01C0
C0000001FE01C0
C0000001FE01C0
C0000003FC01C0
C0000003F801C0
C0000007F001C0
C0000007F001C0
C0000007E001C0
C000000FE001C0
C008000FC001C0
C00C001F8001C0
C00E001F8001C0
C00E001F0001C0
C00E003F0001C0
C00F003E0001C0
C00F003E0001C0
C00F807C0001C0
C00F807C0001C0
C00FC0F80001C0
C00FC0F80001C0
C00FE0F80001C0
C01FE1F00001C0
C01FE1F00001C0
C03FF1E00001C0
C01FF3E00001C0
C00FFBE00001C0
C007FFC00001C0
C003FFC00001C0
C003FFC00001C0
C001FF800001C0
C000FF800001C0
C0007F800001C0
C0007F800001C0
C0003F000001C0
C0001F000001C0
C0001F000001C0
C0000F000001C0
C0000E000001C0
C00000000001C0
C00000000001C0
C00000000001C0
FFFFFFFFFFFFC0
FFFFFFFFFFFFC0
FFFFFFFFFFFFC0
ENDCHAR

STARTCHAR B
ENCODING 66
SWIDTH 616 0
DWIDTH 62 0
BBX 45 75 3 2
BITMAP
0000000001C0
0000000001C0
0000000003C0
0000000007C0
0000000007E0
000000000FE0
000000001FE0
000000001FE0
000000003FE0
000000003FE0
000000007FE0
000000007FE0
00000000FFE0
00000000FFE0
00000001FFF0
00000001FFF0
00000003FFF8
00000003FFF8
00000007FFF0
00000007FFE0
00000007FFC0
0000000FFF80
0000000FFF80
0000001FFF00
0000001FFE00
0000001FFC00
0000003FF800
0000003FF800
0000007FF000
0000007FE000
0000007FC000
000000FFC000
000000FF8000
000000FF0000
000001FF0000
000001FE0000
000001FC0000
000003FC0000
000003F80000
300007F80000
380007F00000
380007F00000
38000FE00000
1C000FE00000
1C000FC00000
1E001FC00000
1E001F800000
1E003F000000
1F003F000000
1F003E000000
3F807E000000
3F807E000000
3FC0FC000000
3FC0FC000000
7FE0F8000000
7FE1F8000000
FFE1F8000000
FFF1F0000000
7FF3F0000000
3FFBF0000000
1FFFE0000000
0FFFE0000000
07FFE0000000
03FFC0000000
01FFC0000000
01FFC0000000
00FF80000000
007F80000000
007F80000000
003F80000000
003F00000000
001F00000000
000F00000000
000F00000000
000E00000000
ENDCHAR

STARTCHAR C
ENCODING 67
SWIDTH 740 0
DWIDTH 74 0
BBX 51 63 1 6
BITMAP
80000000000000
E0000000000000
F0000000000000
FC000000000000
FF000000000000
FF800000000000
FFE00000000000
7FF80000000000
1FFC0000000000
07FF0000000000
03FFC000000000
00FFE000000000
003FF800000000
001FFE00000000
0007FF00000000
0001FFC0000000
0000FFF0000000
00003FFC000000
00000FFE000000
000003FF800000
000001FFE00000
0000007FF00000
0000001FFC0000
0000000FFF0000
00000003FF8000
00000000FFE000
000000007FF800
000000001FFC00
0000000007FF00
0000000003FFC0
0000000001FFE0
0000000003FF80
000000000FFF00
000000001FFC00
000000007FF000
00000000FFE000
00000003FF8000
00000007FF0000
0000001FFC0000
0000007FF80000
000000FFE00000
000003FFC00000
000007FF000000
00001FFC000000
00003FF8000000
0000FFE0000000
0001FFC0000000
0007FF00000000
000FFE00000000
003FF800000000
00FFF000000000
01FFC000000000
07FF0000000000
0FFE0000000000
3FF80000000000
7FF00000000000
FFC00000000000
FF800000000000
FE000000000000
FC000000000000
F0000000000000
C0000000000000
80000000000000
ENDCHAR

STARTCHAR D
ENCODING 68
SWIDTH 953 0
DWIDTH 95 0
BBX 86 80 4 0
BITMAP
0000000000100000000000
0000000000300000000000
0000000000300000000000
0000000000380000000000
0000000000780000000000
00000000007C0000000000
0000000000FC0000000000
0000000000FC0000000000
0000000001FE0000000000
0000000001FE0000000000
0000000003CF0000000000
0000000003CF0000000000
0000000007878000000000
0000000007878000000000
000000000783C000000000
000000000F03C000000000
000000000F01E000000000
000000001E01E000000000
000000001E01E000000000
000000003C00F000000000
000000003C00F000000000
0000000078007800000000
0000000078007800000000
00000000F0003C00000000
00000000F0003C00000000
00000000E0001E00000000
00000001E0001E00000000
00000001E0001F00000000
000003FFC0000FFF000000
00FFFFFFC0000FFFFFFC00
FFFFFFFF800007FFFFFFFC
3FFFFFF00000003FFFFFF0
1FFC00000000000000FFE0
0F800000000000000007C0
07E0000000000000000F80
01F0000000000000003E00
00F8000000000000007C00
007C00000000000000F800
003F00000000000001F000
000F80000000000007E000
0007C000000000000F8000
0003E000000000001F0000
0001F000000000003E0000
00007C00000000007C0000
00003E0000000001F00000
00001F0000000003E00000
00000F8000000007C00000
000007E00000000F800000
000001F00000003F000000
000000F00000003C000000
000000700000003C000000
000000E00000001C000000
000000E00000001C000000
000001E00000000E000000
000001C00000000E000000
000001C00000000F000000
000003C000000007000000
0000038000000007000000
0000038000000007800000
0000070000000003800000
0000070000000003800000
0000070000780003C00000
00000E0001FE0001C00000
00000E0003FF8001C00000
00001E000FFFE001E00000
00001C003F87F000E00000
00001C00FF01FC00E00000
00003C03FC007F00700000
0000380FF0003FC0700000
0000383FC0000FF0780000
000078FF000003FC380000
000073FC000000FF380000
00007FF00000003FFC0000
0000FFC00000000FFC0000
0000FF0000000003FC0000
0001FC0000000000FE0000
0001F000000000003E0000
0001E000000000000E0000
0003800000000000070000
0002000000000000010000
ENDCHAR

STARTCHAR E
ENCODING 69
SWIDTH 1048 0
DWIDTH 105 0
BBX 87 81 4 0
BITMAP
0000000000100000000000
0000000000100000000000
0000000000300000000000
0000000000380000000000
0000000000780000000000
00000000007C0000000000
0000000000FC0000000000
0000000000FE0000000000
0000000001FE0000000000
0000000001FF0000000000
0000000003FF0000000000
0000000003FF8000000000
0000000003FF8000000000
0000000007FF8000000000
0000000007FFC000000000
000000000FFFC000000000
000000000FFFE000000000
000000001FFFE000000000
000000001FFFF000000000
000000003FFFF000000000
000000003FFFF800000000
000000007FFFF800000000
000000007FFFFC00000000
000000007FFFFC00000000
00000000FFFFFE00000000
00000000FFFFFE00000000
00000001FFFFFF00000000
00000003FFFFFFF8000000
00001FFFFFFFFFFFFF0000
00FFFFFFFFFFFFFFFFFFE0
FFFFFFFFFFFFFFFFFFFFFE
3FFFFFFFFFFFFFFFFFFFF8
1FFFFFFFFFFFFFFFFFFFF0
0FFFFFFFFFFFFFFFFFFFE0
07FFFFFFFFFFFFFFFFFFC0
01FFFFFFFFFFFFFFFFFF00
00FFFFFFFFFFFFFFFFFE00
007FFFFFFFFFFFFFFFFC00
003FFFFFFFFFFFFFFFF800
000FFFFFFFFFFFFFFFF000
0007FFFFFFFFFFFFFFC000
0003FFFFFFFFFFFFFF8000
0001FFFFFFFFFFFFFF0000
00007FFFFFFFFFFFFE0000
00003FFFFFFFFFFFFC0000
00001FFFFFFFFFFFF80000
00000FFFFFFFFFFFE00000
000003FFFFFFFFFFC00000
000001FFFFFFFFFF800000
000000FFFFFFFFFF000000
0000007FFFFFFFFE000000
000000FFFFFFFFFE000000
000000FFFFFFFFFE000000
000000FFFFFFFFFF000000
000001FFFFFFFFFF000000
000001FFFFFFFFFF000000
000001FFFFFFFFFF800000
000003FFFFFFFFFF800000
000003FFFFFFFFFF800000
000003FFFFFFFFFFC00000
000007FFFFFFFFFFC00000
000007FFFFFFFFFFE00000
00000FFFFFFFFFFFE00000
00000FFFFFFFFFFFE00000
00000FFFFFFFFFFFF00000
00001FFFFFDFFFFFF00000
00001FFFFF07FFFFF00000
00001FFFFC01FFFFF80000
00003FFFF8007FFFF80000
00003FFFE0001FFFF80000
00003FFF800007FFFC0000
00007FFE000001FFFC0000
00007FF80000007FFC0000
00007FF00000000FFE0000
0000FFC000000003FE0000
0000FF0000000000FE0000
0000FC00000000003F0000
0001F000000000000F0000
0001E00000000000030000
0001800000000000008000
0002000000000000000000
ENDCHAR

STARTCHAR F
ENCODING 70
SWIDTH 732 0
DWIDTH 73 0
BBX 58 79 0 0
BITMAP
0000000200000000
0000000200000000
0000000300000000
0000000380000000
00000003C0000000
00000003C0000000
00000003E0000000
00000003F0000000
00000003F0000000
00000003F8000000
00000003FC000000
00000003FC000000
00000003FE000000
00000003FF000000
00000003FF000000
00000003FF800000
00000003FFC00000
00000003FFE00000
00000003FFE00000
00000003FFF00000
00000003FFF80000
FFFFFFFFFFF80000
FFFFFFFFFFFC0000
FFFFFFFFFFFE0000
FFFFFFFFFFFE0000
FFFFFFFFFFFF0000
FFFFFFFFFFFF8000
FFFFFFFFFFFFC000
FFFFFFFFFFFFC000
FFFFFFFFFFFFE000
FFFFFFFFFFFFF000
FFFFFFFFFFFFF000
FFFFFFFFFFFFF800
FFFFFFFFFFFFFC00
FFFFFFFFFFFFFC00
FFFFFFFFFFFFFE00
FFFFFFFFFFFFFF00
FFFFFFFFFFFFFF80
FFFFFFFFFFFFFF80
FFFFFFFFFFFFFFC0
FFFFFFFFFFFFFFC0
FFFFFFFFFFFFFF80
FFFFFFFFFFFFFF00
FFFFFFFFFFFFFE00
FFFFFFFFFFFFFE00
FFFFFFFFFFFFFC00
FFFFFFFFFFFFF800
FFFFFFFFFFFFF800
FFFFFFFFFFFFF000
FFFFFFFFFFFFE000
FFFFFFFFFFFFE000
FFFFFFFFFFFFC000
FFFFFFFFFFFF8000
FFFFFFFFFFFF0000
FFFFFFFFFFFF0000
FFFFFFFFFFFE0000
FFFFFFFFFFFC0000
FFFFFFFFFFFC0000
FFFFFFFFFFF80000
FFFFFFFFFFF00000
00000003FFE00000
00000003FFE00000
00000003FFC00000
00000003FF800000
00000003FF800000
00000003FF000000
00000003FE000000
00000003FE000000
00000003FC000000
00000003F8000000
00000003F0000000
00000003F0000000
00000003E0000000
00000003C0000000
00000003C0000000
0000000380000000
0000000300000000
0000000200000000
0000000200000000
ENDCHAR

STARTCHAR G
ENCODING 71
SWIDTH 732 0
DWIDTH 73 0
BBX 58 79 0 0
BITMAP
0000000100000000
0000000100000000
0000000180000000
0000000180000000
00000001C0000000
00000001E0000000
00000001A0000000
00000001B0000000
0000000198000000
000000018C000000
000000018C000000
0000000186000000
0000000183000000
0000000183000000
0000000181800000
0000000180C00000
0000000180C00000
0000000180600000
0000000180300000
0000000180300000
0000000180180000
FFFFFFFF800C0000
FFFFFFFF800E0000
C000000000060000
C000000000030000
C000000000038000
C000000000018000
C00000000001C000
C00000000000E000
C000000000006000
C000000000007000
C000000000003800
C000000000001800
C000000000001C00
C000000000000E00
C000000000000600
C000000000000700
C000000000000380
C0000000000003C0
C0000000000007C0
C000000000000FC0
C000000000001F80
C000000000001F00
C000000000003F00
C000000000007E00
C000000000007C00
C00000000000F800
C00000000001F800
C00000000001F000
C00000000003E000
C00000000007E000
C0000000000FC000
C0000000000F8000
C0000000001F8000
C0000000003F0000
FFFFFFFF803E0000
FFFFFFFF807E0000
FFFFFFFF80FC0000
FFFFFFFF81F80000
FFFFFFFF81F80000
0000000183F00000
0000000187E00000
0000000187C00000
000000018FC00000
000000019F800000
00000001BF000000
00000001BF000000
00000001FE000000
00000001FC000000
00000001FC000000
00000001F8000000
00000001F0000000
00000001F0000000
00000001E0000000
00000001C0000000
0000000180000000
0000000180000000
0000000100000000
0000000100000000
ENDCHAR

STARTCHAR H
ENCODING 72
SWIDTH 1000 0
DWIDTH 100 0
BBX 100 12 0 4
BITMAP
000000000000FFFFFFFFFFFFF0
000000000000FFFFFFFFFFFFF0
000000000000FFFFFFFFFFFFF0
000000000000FFFFFFFFFFFFF0
00000000000000000000000000
00000000000000000000000000
00000000000000000000000000
FFFFFFFFFFFFFFFFFFFFFFFFF0
FFFFFFFFFFFFFFFFFFFFFFFFF0
FFFFFFFFFFFFFFFFFFFFFFFFF0
FFFFFFFFFFFFFFFFFFFFFFFFF0
FFFFFFFFFFFFFFFFFFFFFFFFF0
ENDCHAR

STARTCHAR I
ENCODING 73
SWIDTH 787 0
DWIDTH 79 0
BBX 55 74 1 0
BITMAP
FE000000000000
FFF00000000000
FFFF0000000000
FFFFE000000000
FFFFFC00000000
FFFFFF00000000
FFFFFFC0000000
FFFFFFF0000000
FFFFFFF8000000
FFFFFFFE000000
FFFFFFFF000000
FFFFFFFF800000
FFFFFFFFE00000
03FFFFFFF00000
00FFFFFFF80000
001FFFFFFC0000
0007FFFFFE0000
0001FFFFFF0000
00007FFFFF8000
00003FFFFF8000
00000FFFFFC000
000007FFFFE000
000001FFFFF000
000000FFFFF800
0000007FFFF800
0000003FFFFC00
0000001FFFFE00
0000000FFFFE00
00000007FFFF00
00000007FFFF00
00000003FFFF80
00000001FFFF80
00000000FFFFC0
00000000FFFFC0
000000007FFFE0
000000007FFFE0
000000003FFFE0
000000003FFFF0
000000001FFFF0
000000001FFFF0
000000001FFFF8
000000000FFFF8
000000000FFFF8
0000000007FFF8
0000000007FFFC
0000000007FFFC
0000000007FFFC
0000000007FFFC
0000000007FFFC
0000000003FFFC
0000000003FFFE
0000000003FFFE
0000000003FFFE
0000000003FFFE
0000000003FFFE
0000000003FFFE
0000000003FFFE
0000000003FFFE
0000000003FFFE
0000000003FFFE
0000000003FFFE
0000000003FFFE
0000000003FFFC
0000000003FFFC
0000000003FFFC
0000000007FFFC
0000000007FFFC
0000000007FFFC
0000000007FFF8
0000000007FFF8
000000000FFFF8
000000000FFFF0
000000000FFFF0
000000001FFFC8
ENDCHAR

STARTCHAR J
ENCODING 74
SWIDTH 756 0
DWIDTH 76 0
BBX 49 76 3 -9
BITMAP
70000000000000
7C000000000000
FF000000000000
FF800000000000
FFC00000000000
7FE00000000600
3FF00000003F00
1FF00000007F80
1FF8000001FF80
0FFC000001FF80
07FC000003FF80
03FE000007FF00
03FF00000FFE00
01FF00001FFE00
00FF80001FFC00
007FC0003FF800
007FC0007FF000
003FE0007FF000
001FE000FFE000
000FF001FFC000
000FF801FF8000
0007F803FF8000
0003FC03FF0000
0001FE07FE0000
0001FE0FFC0000
0000FF0FFC0000
0000FF9FF80000
00007FFFF00000
00007FFFE00000
00003FFFE00000
00001FFFC00000
00001FFF800000
00001FFF000000
00000FFF000000
00000FFE000000
00000FFC000000
00000FFE000000
00001FFE000000
00003FFF000000
00003FFF000000
00007FFF800000
0000FFFF800000
0000FF3FC00000
0001FF3FC00000
0001FE1FE00000
0003FE1FE00000
0007FC0FF00000
0007F80FF00000
000FF807F80000
001FF007F80000
001FF003FC0000
003FE003FC0000
007FE001FE0000
007FC001FE0000
00FFC000FF0000
01FF8000FF0000
01FF8000FF8000
03FF00007F8000
07FF00007FC000
07FE00003FC000
0FFE00003FE000
1FFC00003FE000
1FF800001FE000
1FF800001FF000
3FF000000FF000
3FE000000FF000
1FC000000FF800
020000000FF800
0000000007F800
0000000007F800
0000000007FC00
0000000003FC00
0000000003FC00
0000000003FC00
0000000001F800
0000000000F000
ENDCHAR

STARTCHAR K
ENCODING 75
SWIDTH 935 0
DWIDTH 94 0
BBX 67 80 3 0
BITMAP
FFFC0000000007FF80
7FFC0000000007FF80
3FFE000000000FFF00
3FFF000000001FFE00
1FFF000000001FFE00
0FFF800000003FFC00
0FFFC00000007FF800
07FFC00000007FF800
03FFE0000000FFF000
03FFE0000001FFE000
01FFF0000003FFC000
00FFF8000003FFC000
007FF8000007FF8000
007FFC00000FFF0000
003FFE00000FFF0000
001FFE00001FFE0000
001FFF00003FFC0000
000FFF80003FFC0000
0007FF80007FF80000
0007FFC000FFF00000
0003FFE000FFF00000
0001FFE001FFE00000
0001FFF003FFC00000
0000FFF807FFC00000
00007FF807FF800000
00007FFC0FFF000000
00003FFC1FFF000000
00001FFE1FFE000000
00000FFF3FFC000000
00000FFF7FF8000000
000007FFFFF8000000
000003FFFFF0000000
000003FFFFE0000000
000001FFFFE0000000
000000FFFFC0000000
000000FFFF80000000
0000007FFF80000000
0000003FFF00000000
0000003FFE00000000
0000001FFE00000000
0000003FFF00000000
0000007FFF00000000
0000007FFF80000000
000000FFFFC0000000
000001FFFFC0000000
000001FFFFE0000000
000003FFFFF0000000
000007FFFFF8000000
000007FFFFF8000000
00000FFF3FFC000000
00001FFF3FFE000000
00001FFE1FFE000000
00003FFC0FFF000000
00007FFC0FFF800000
00007FF807FF800000
0000FFF003FFC00000
0000FFF003FFE00000
0001FFE001FFE00000
0003FFE000FFF00000
0003FFC000FFF80000
0007FF80007FFC0000
000FFF80003FFC0000
000FFF00003FFE0000
001FFF00001FFF0000
003FFE00001FFF0000
003FFC00000FFF8000
007FFC000007FFC000
00FFF8000007FFC000
00FFF0000003FFE000
01FFF0000001FFF000
03FFE0000001FFF800
03FFE0000000FFF800
07FFC00000007FFC00
0FFF800000007FFE00
0FFF800000003FFE00
1FFF000000001FFF00
3FFF000000001FFF80
3FFE000000000FFF80
7FFC0000000007FFC0
FFFC0000000007FFE0
ENDCHAR

STARTCHAR L
ENCODING 76
SWIDTH 1000 0
DWIDTH 100 0
BBX 88 65 0 4
BITMAP
0003800000000000000000
000F800000000000000000
0030D00000000000000000
0060BC0000000000000000
00C0A70000000000000000
0301A3C000000000000000
060160E000000000000000
0C03602400000000000000
0C02C02C00000000000000
1806C06F00000000000000
300D806D80000000000000
201B0048E0000000000000
6033005830000000000000
407600D81C000000000000
C0CC00980E000000000000
C19801B003000000000000
C730037001C00000000000
CEE0066000600000000000
F98006C000380000000000
67000DF0000C0000000000
3C001B3800070000000000
0C00761E00038000000000
0600EC070000C000000000
0303980380007000000000
01BE7000E0001800000000
0078C00070000E00000000
000780001C000700000000
000C00000E0001C0000000
00070000038000E0000000
0001800001C00030000000
0000E0000060001C000000
0000300000380006000000
00001C00000C0003800000
0000060000070001C00000
0000038000038000700000
000000C00000E000380000
00000070000070000E0000
0000001800001800070000
0000000E00000E00018000
000000030000030000E000
00000001800001C0007000
0000000060000060001000
0000000030000038001800
000000000C00000C001800
0000000006000007001400
0000000001800001803C00
0000000000C00000C02200
0000000000300000703200
000000000018000018F100
00000000000600000E8100
000000000003000003C080
000000000001C00001C080
0000000000006000010040
00000000000038001F0040
0000000000000C00100020
0000000000000700180020
0000000000000180780010
00000000000000E0600010
0000000000000030400018
000000000000001DC00038
000000000000000700007C
0000000000000001F800FC
000000000000000003F8FE
00000000000000000007FE
000000000000000000000F
ENDCHAR

STARTCHAR M
ENCODING 77
SWIDTH 1440 0
DWIDTH 144 0
BBX 121 56 0 -1
BITMAP
0000000000001FFFFFE0000000000000
00000000007FFFFFFFFFE00000000000
000000007FFFFFFFFFFFFFE000000000
00000007FFFFFFFFFFFFFFFE00000000
0000003FFFFFFFFFFFFFFFFF80000000
0000007FFFFFFFFFFFFFFFFFC0000000
000001FFFFFFFFFFFFFFFFFFF0000000
000007FFFFFFFFFFFFFFFFFFF8000000
00000FFFFFFFFFFFFFFFFFFFFE000000
00003FFFFFFFFFFFFFFFFFFFFF000000
0000FFFFE00000000000007FFFC00000
0001FFFFE00000000000007FFFE00000
0007FFFFE7FFFFFFFFFFFE7FFFF80000
000FFFFFE7FFFFFFFFFFFE7FFFFC0000
003FFFFFE7FFFFFFFFFFFE7FFFFF0000
00FFFFFFE7FFFFFFFFFFFE7FFFFF8000
01FFFFFFE7FFFFFFFFFFFE7FFFFFE000
07FFFFFFE7FFFFFFFFFFFE7FFFFFF000
1FFFFFFFE7FFFF0007FFFE7FFFFFFC00
3FFFFFFFE7FFF000007FFE7FFFFFFE00
FFFFFFFFE7FF8000000FFE7FFFFFFF80
FFFFFFFFE7FF00000007FE7FFFFFFF80
FFFFFFFFE7FC00000001FE7FFFFFFF80
FFFFFFFFE7F800000000FE7FFFFFFF80
FFFFFFFFC7E0000000003E3FFFFFFF80
FFFFFFFF8FC0000000001F1FFFFFFF80
FFFFFFFE3F80000000000F87FFFFFF80
FFFFFFFC7F00000000000FE3FFFFFF80
FFFFFFF1FF000000000007F1FFFFFF80
FFFFFFC3FF000000000007FC7FFFFF80
FFFFFF8FFF000000000007FE3FFFFF80
FFFFFE1FFF00000000000FFF0FFFFF80
FFFFFC7FFF00000000000FFFC7FFFF80
7FFFF0FFFF80000000001FFFE1FFFF00
3FFFE3FFFFC0000000001FFFF8FFFE00
1FFF87FFFFE0000000003FFFFC3FFC00
0FFE1FFFFFF0000000007FFFFE1FF800
03FC3FFFFFF800000000FFFFFF8FF000
01F0FFFFFFFE00000003FFFFFFC3E000
00E1FFFFFFFF00000007FFFFFFF1C000
0007FFFFFFFFE000003FFFFFFFF80000
000FFFFFFFFFFE0003FFFFFFFFFC0000
003FFFFFFFFFFFFFFFFFFFFFFFFF0000
003FFFFFFFFFFFFFFFFFFFFFFFFF0000
003FFFFFFFFFFFFFFFFFFFFFFFFF0000
003FFFFFFFFFFFFFFFFFFFFFFFFF0000
003FFFFFFFFFFFFFFFFFFFFFFFFF0000
003FFFFFFFFFFFFFFFFFFFFFFFFF0000
003FFFFFFFFFFFFFFFFFFFFFFFFF0000
003FFFFFFFFFFFFFFFFFFFFFFFFF0000
003FFFFFFFFFFFFFFFFFFFFFFFFF0000
003FFFFFFFFFFFFFFFFFFFFFFFFF0000
003FFFFFFFFFFFFFFFFFFFFFFFFF0000
003FFFFFFFFFFFFFFFFFFFFFFFFF0000
003FFFFFFFFFFFFFFFFFFFFFFFFF0000
003FFFFFFFFFFFFFFFFFFFFFFFFF0000
ENDCHAR

STARTCHAR N
ENCODING 78
SWIDTH 1292 0
DWIDTH 129 0
BBX 99 64 1 -2
BITMAP
000000003FFFFFF00000000000
00000FFFFFFFFFFFFFF0000000
007FFFFFFFFFFFFFFFFFF00000
01FFFFFFFFFFFFFFFFFFFF8000
07FFFFFFFFFFFFFFFFFFFFE000
0FFFFFFFFFFFFFFFFFFFFFF800
1FFFFFFFFFFFFFFFFFFFFFFC00
3FFFFFFFFFFFFFFFFFFFFFFE00
3FFFFFF80FFFFFFFFFFFFFFF00
7FFFFFFBEFFFFFFE01FFFFFF80
7FFFFFFFEFFFFFFEF9FFFFFF80
FFFFFFF7EFFFFFFEFDFFFFFFC0
FFFFFCFFFFFFFFFFFFC7FFFFC0
FFFFFCFFFFFFFFFFFFC7FFFFC0
FFFFFDFFFFFFFFFFFFE7FFFFE0
FFFFF9FFFFFFFFFFFFE3FFFFE0
FFFFFBFFFFFFFFFFFFF3FFFFE0
FFFFF7FFC0180600FFF9FFFFE0
FFFFF7FFC01806007FF9FFFFE0
FFFFEFFFFFFFFFFFFFFCFFFFE0
7FFFEFFFFFFFFFFFFFFEFFFFC0
7FFFDFFF801806003FFE7FFFC0
7FFF1FFF001806003FFF7FFFC0
7FF03FFFFFFFFFFFFFFF0FFFC0
3F807FFFFFFFFFFFFFFF81FF80
38007FFE001807000FFFC01F80
0000FFFC001803000FFFC00300
0000FFFFFFFFFFFFFFFFE00000
0001FFFFFFFFFFFFFFFFF00000
0001FFFC0018030007FFF00000
0003FFF80030030003FFF80000
0007FFFFFFFFFFFFFFFFF80000
0007FFFFFFFFFFFFFFFFFC0000
000FFFF00000000001FFFE0000
000FFFE00000000001FFFE0000
001FFFE00000000001FFFF0000
003FFFFFFFFFFFFFFFFFFF0000
003FFFFFFFFFFFFFFFFFFF8000
007FFFFFFFFFFFFFFFFFFF8000
007FFFFFFFFFFFFFFFFFFF8000
007FFFFFFFFFFFFFFFFFFF4000
0040000000000000000000C000
007FFFFFFFFFFFFFFFFFFFC000
007FFFFFFFFFFFFFFFFFFFC000
007FFFFFFFFFFFFFFFFFFFC000
007FFFFFFFFFFFFFFFFFFFE000
007FFFFFFFFFFFFFFFFFFFE000
007FFFFFFFFFFFFFFFFFFFE000
007FFFFFFFFFFFFFFFFFFFE000
007FFFFFFFFFFFFFFFFFFFE000
007FFFFFFFFFFFFFFFFFFFE000
007FFFFFFFFFFFFFFFFFFFE000
007FFFFFFFFFFFFFFFFFFFE000
007FFFFFFFFFFFFFFFFFFFE000
007FFFFFFFFFFFFFFFFFFFE000
007FFFFFFFFFFFFFFFFFFFE000
007FFFFFFFFFFFFFFFFFFFE000
007FFFFFFFFFFFFFFFFFFFE000
007FFFFFFFFFFFFFFFFFFFC000
003FFFFFFFFFFFFFFFFFFFC000
003FFFFFFFFFFFFFFFFFFF8000
000FFFFFFFFFFFFFFFFFFF0000
000007FF0000000007FF000000
000007FF0000000007FF000000
ENDCHAR

STARTCHAR O
ENCODING 79
SWIDTH 1488 0
DWIDTH 149 0
BBX 129 58 0 6
BITMAP
00000000000000003FFFFFFFFFFFC00000
000000000001FFFFFFFFFFFFFFFFFFFF80
000000000FFFFFFFE000000000007FFF80
00003FFFFFFF0000000000000000070300
0003FFFFF800000000000000000007FF00
001FE0618000000000000000000001FE00
001E006180000000000000000000003C00
001800E180000000000000000000007000
003800C18000000000000000000787E000
003000C38000000000000000003FFFC000
003000C3000000000000000003FCFC0000
007000C3000000000000000E3FE0000000
006000C3000000000000001FFE00000000
006000C3000000000000003BE000000000
00E001C30000000000003FF00000000000
00C00183000000000001FFE00000000000
00C00183000000000003E6000000000000
00C0018300000000000306000000000000
01C0018300000000C00707000000000000
0180018300000000E00603000000000000
0180018700000000600E03800000000000
0180038600000000707C01800000000000
01800306000000003FFC01C00000000000
01800306000000003FCE00C00000000000
03800306000000003F0700E00000000000
03000306000000001B0300600000000000
03000306000000001B0300700000000000
03000306000000001F8380300000000000
07000706000000000D8180700000000000
06000607FFC000000D8180600000000000
0E000607FFE000000F8380E00000000000
0C00060E0C700000070300C00000000000
1C00060C0C380000038701C00000000000
1800060C0C1E000001CE01800000000000
1800060C0C0F000000FC03800000000000
38000E0C0C03C000007803000000000000
30000C0C0C01E000003807000000000000
30000C0C1C007C00001E0E000000000000
30000C0C18003F80000F9C000000000000
70000C0C180007F80003F8000000000000
60000C0C380000FF8000F0000000000000
60000C0C3000000FF00038000000000000
60001C1C70000000FC001C000000000000
E0001818E00000001F000E000000000000
C0001819C0000000078007800000000000
C06018198000000001C01FC00000000000
C0F0181F8000000000E07FE00000000000
C1F8181F00000000007877E00000000000
C79C181C00000000003C01E00000000000
C71C381800000000000F00E00000000000
C3B83018000000000007C0600000000000
E1F03038000000000001F0600000000000
60E030700000000000007C700000000000
60003FE00000000000001FB00000000000
7003FFC000000000000007F00000000000
387FE00000000000000000F00000000000
3FFE000000000000000000000000000000
0FC0000000000000000000000000000000
ENDCHAR

STARTCHAR P
ENCODING 80
SWIDTH 1292 0
DWIDTH 129 0
BBX 97 41 0 13
BITMAP
000000007FFFF0000000000000
00000001FFFFFFFFFF80000000
00000007C0001FFFFFFFFFFC00
0000003F00000F8000FFFFFE00
000007FC000003C00000000700
000007E0000000F00000000380
00000F000000007C0000000180
00003C000000001E0000000380
FFC0F800000000078000000300
FFC3E00000000003E000000700
C0CF800000000000F0003FFE00
C0CE0000000000003FFFFFFE00
C0CC00000003C0001FFFE00000
C0CC0000007FE0001800000000
C0CC000000FE70003800000000
C0CC000000C03E007000000000
C0CC000001C01FFFE000000000
C0CC000003801FFFF800000000
C0CC00000300FFFFFF00000000
C0CC00000701F0000F80000000
C0CC00003E03800001C0000000
C0CC0000FC03000000C0000000
C0CC0003E003800001C0000000
C0CF803F8001C0000380000000
C0CFFFFE0000E0000700000000
C0CCFFE00000FFFFFF00000000
C0CC00000000FFFFFC00000000
C0CC00000001F0003E00000000
C0CC0000000380000700000000
C0CC0000000300000300000000
C0CC0000000380000700000000
C0CC00000001E0001E00000000
C0CC00000000FFFFFC00000000
C0CC000000007FFFF000000000
C0CE00000000F801F000000000
C0CF00000001C0003800000000
C0C3E000000180001800000000
FFC1FF000001C0003800000000
FFC03FFFFFFFF000F000000000
000001FFFFFFFFFFE000000000
0000000000001FFF8000000000
ENDCHAR

STARTCHAR Q
ENCODING 81
SWIDTH 844 0
DWIDTH 84 0
BBX 62 64 0 7
BITMAP
0003FE0000000000
0003FE0000000000
0001FF0000000000
0001FF0000000000
0001FF8000000000
0000FF8000000000
0000FFC000000000
0000FFE000000000
00007FE000000000
00007FF000000000
00007FF000000000
00003FF800000000
00003FF800000000
00003FFC00000000
00003FFE00000000
00001FFE00000000
00001FFF00000000
00001FFF00000000
00000FFF80000000
00000FFF80000000
00000FFFC0000000
F00007FFE0000000
F80007FFE0000000
F80007FFF0000000
7C0007FFF0000000
7E0003FFF8000000
7E0003FFF8000000
7F0003FFFC000000
7F0001FFFE000000
7FFFFFFFFFFFFFF0
3FFFFFFFFFFFFFF8
3FFFFFFFFFFFFFFC
3FFFFFFFFFFFFFFC
3FFFFFFFFFFFFFFC
3FFFFFFFFFFFFFFC
3FFFFFFFFFFFFFF8
7FFFFFFFFFFFFFF0
7F0001FFFC000000
7F0001FFFC000000
7E0001FFF8000000
7C0003FFF8000000
FC0003FFF0000000
F80007FFE0000000
F00007FFE0000000
000007FFC0000000
00000FFFC0000000
00000FFF80000000
00000FFF00000000
00001FFF00000000
00001FFE00000000
00001FFE00000000
00003FFC00000000
00003FF800000000
00003FF800000000
00007FF000000000
00007FF000000000
00007FE000000000
0000FFC000000000
0000FFC000000000
0000FF8000000000
0001FF0000000000
0001FF0000000000
0001FE0000000000
0003FE0000000000
ENDCHAR

STARTCHAR R
ENCODING 82
SWIDTH 1195 0
DWIDTH 120 0
BBX 72 64 3 0
BITMAP
0000FFFFFFFFFF8000
0003FFFFFFFFFFE000
0007FFFFFFFFFFE000
000FFFFFFFFFFFF000
000FFFFFFFFFFFF000
001FE000000001F800
001FC000000001F800
003F8000000001F800
003F8000000000FC00
003F0000000000FC00
007F0000000000FC00
007F0000000000FE00
00FF00000000007E00
00FE00000000007F00
00FE00000000007F00
01FE00000000003F00
01FE00000000003F80
03FC00000000003F80
03FC00000000003F80
03FC00000000001FC0
07FFFFFFFFFFFFFFC0
07FFFFFFFFFFFFFFC0
0FFFFFFFFFFFFFFFE0
3FFFFFFFFFFFFFFFF0
7FFFFFFFFFFFFFFFF8
7FFFFFFFFFFFFFFFFC
FFFFFFFFFFFFFFFFFE
FF83FFFFFFFFFFE0FE
FF01FFFFFFFFFFC07F
FE00FFFFFFFFFF803F
FC007FFFFFFFFF001F
FC007FFFFFFFFF001F
FC007FFFFFFFFF001F
FC007FFFFFFFFF001F
FE00FFFFFFFFFF803F
FF01FFFFFFFFFFC07F
FF83FFFFFFFFFFE0FF
FFFFFFFFFFFFFFFFFF
FFFFFFFFFFFFFFFFFF
FFFFFFFFFFFFFFFFFF
FFFFFFFFFFFFFFFFFF
FFFFFFFFFFFFFFFFFF
FFFFFFFFFFFFFFFFFF
FFFFFFFFFFFFFFFFFF
FFFFFFFFFFFFFFFFFF
FFFFFFFFFFFFFFFFFF
FFFFFFFFFFFFFFFFFF
FFFFFFFFFFFFFFFFFF
FFFFFFFFFFFFFFFFFF
FFFFFFFFFFFFFFFFFF
0FF800000000007FC0
0FF800000000007FC0
0FF800000000007FC0
0FF800000000007FC0
0FF800000000007FC0
0FF800000000007FC0
0FF800000000007FC0
0FF800000000007FC0
0FF800000000007FC0
0FF800000000007FC0
0FF800000000007FC0
0FF800000000007FC0
07F000000000003F80
03E000000000001F00
ENDCHAR

STARTCHAR S
ENCODING 83
SWIDTH 1376 0
DWIDTH 138 0
BBX 118 56 0 4
BITMAP
FFFFFFFFFFFFFFFFFFFFFFFFFFFFFC
C0000000000000000000000000000C
B00000000000000000000000000034
8800000000000000000000000000C4
860000000000000000000000000104
818000000000000000000000000604
804000000000000000000000000804
803000000000000000000000003004
80080000000000000000000000C004
800600000000000000000000010004
800100000000000000000000060004
8000C0000000000000000000080004
800020000000000000000000300004
800018000000000000000000C00004
800006000000000000000001000004
800001000000000000000006000004
800000C00000000000000008000004
800000200000000000000030000004
8000001800000000000000C0000004
800000040000000000000100000004
800000030000000000000600000004
80000000C000000000000800000004
800000002000000000003000000004
80000000180000000000C000000004
800000000400000000010000000004
800000000B00000000068000000004
8000000010E0000000384000000004
80000000201E000001C02000000004
800000004001C0000E001800000004
8000000180003E01F0000400000004
80000002000001FE00000200000004
800000040000000000000100000004
800000080000000000000080000004
800000100000000000000060000004
800000600000000000000010000004
800000800000000000000008000004
800001000000000000000004000004
800002000000000000000003000004
800004000000000000000000800004
800008000000000000000000400004
800030000000000000000000200004
800040000000000000000000100004
8000800000000000000000000C0004
800100000000000000000000020004
800200000000000000000000010004
800C00000000000000000000008004
801000000000000000000000006004
802000000000000000000000001004
804000000000000000000000000804
808000000000000000000000000404
830000000000000000000000000204
840000000000000000000000000184
880000000000000000000000000044
900000000000000000000000000024
A00000000000000000000000000014
FFFFFFFFFFFFFFFFFFFFFFFFFFFFFC
ENDCHAR

STARTCHAR T
ENCODING 84
SWIDTH 1098 0
DWIDTH 110 0
BBX 77 81 4 -1
BITMAP
00000001000400000000
00080002000200010000
00040002000100020000
00020004000100020000
00020004000080040000
00010008000040040000
00008008000040080000
00008010000020100000
00004010000010100000
00002020000010200000
80002020000000200018
700000000000000000E0
0E000000000078000700
01C001C00003FF803800
00301FFC0007FFC1C000
00003FFF800FFFE00000
00007FFFC01FFFF80000
0001FFFF800FFFFC0000
0003FFFE0003FFFC0000
0007FFF00000FFFC0000
0007FFC03FF83FFE0000
0007FF01FFFF0FFE0000
000FF807FFFFC3FE0000
000FE03FFFFFF0FF0000
000F80FFF803FC3F0000
000C01FFE080FE0F0000
000003FF81C01F030000
00000FFC03E003C00000
00001FF807F001E00000
00003FF007F000F00000
00007FE007F000780000
00007FC003F000380000
0000FF8003F0003C0000
0001FF0003E0001C0000
0003FF0003E0001E0000
0003FE0003E0000E0000
0007FE0003E0000E0000
0007FE0001E0000F0000
000FFC0001E000070000
000FFC0001E000070000
000FFC0001E000070000
000FFC0001E000070000
000FFC0001C000038000
000FFC0000C000038000
000FFC0000C000038000
000FFC0000C000038000
000FFC0000C000078000
000FFC00006000070000
000FFC00007800070000
000FFC00003C00070000
0007FE00001F000F0000
0007FE00001F800E0000
0003FE00000FE00E0000
0003FF00000FE01E0000
0001FF000007E01C0000
0000FF800003E03C0000
00007F800003E0380000
00007FC0000000780000
00003FE0000000F00000
00001FF0000000E00000
00000FF8000001C00000
00000FFC000003C80000
000007FF00000F980000
000003FFC0007F380000
000005FFF001FE700000
0000077FFFFFF9E00000
0000038FFFFFE7C00000
000001E0FFFF1F800000
000000F807E07F800000
0000007E00003FC00000
0000007F80001FE00000
0000007F00000FF80000
000000FE000007FF0000
000003FC000003FF0000
000007F8000001FF0000
00001FF8000000FF0000
00003FF00000007F0000
00003FE00000003F0000
00001FC00000003E0000
00000F80000000000000
00000F80000000000000
ENDCHAR

STARTCHAR U
ENCODING 85
SWIDTH 992 0
DWIDTH 99 0
BBX 75 77 4 2
BITMAP
00000000060000000000
00000000060000000000
00000000060000000000
00000000060000000000
00000000060000000000
00000000060000000000
00000000060000000000
00000000060000000000
00000000060000000000
00000000000000000000
00040000000000040000
00030000000000180000
00018000000000300000
00004000000000400000
00003000000001800000
000010007F8003000000
00000003FFF002000000
0000000F807E00000000
0000003C000F00000000
000000700003C0000000
000001E00001E0000000
000003C0000070000000
00000300000038000000
00000700000018000000
00000E0000001C000000
00001C0000000E000000
00001800000006000000
00003800000007000000
00003000000003000060
00003000000003000380
00003000000003003C00
FE00600004400180C000
03E06000946001800000
00006001639001800000
0000600C408701800000
0000600E000601800000
00006006000C01800000
00006007001801800000
00006003803001800000
00006001806001000000
00003001C0C003000000
00003000C0C003000000
00003000C0C003000000
00003800C0C006000000
00001800C0C006000000
00001C00C0C00C000000
00000C00C0C01C000000
00000E00C0C018000000
00000700C0C038000000
00000380C0C070000000
000001E0C0C0E0000000
000000F8C0C3C0000000
00000038C0C300000000
00000018C0C300000000
00000018C0C300000000
00000018C0C300000000
00000018C0C300000000
00000018C0C300000000
00000018C0C300000000
00000018C0C300000000
00000018C0C300000000
00000018C0C300000000
00000018C0C300000000
00000018C0C300000000
00000018C0C300000000
00000018C0C300000000
0000001FFFFF00000000
0000001FFFFF00000000
00000000000000000000
00000007FFFC00000000
00000007FFFC00000000
00000000000000000000
00000007FFFC00000000
00000007FFFC00000000
00000000000000000000
00000001FFF000000000
00000001FFF000000000
ENDCHAR

STARTCHAR V
ENCODING 86
SWIDTH 1175 0
DWIDTH 118 0
BBX 88 76 0 0
BITMAP
007FFFFFFFFFFFF8000000
00FFFFFFFFFFFFFC000000
01FFFFFFFFFFFFFE000000
01FFFFFFFFFFFFFE000000
01FFFFFFFFFFFFFE000000
01FE0000000001FE000000
01FC0000000000FE000000
01F800000000007E000000
01F800000000007E000000
01F800000000007E000000
01F800000000007E000000
01F800000000007E000000
01F800000000007E000000
01F800000000007E000000
01F800000000007E000000
01F800000000007E000000
01F800000000007E000000
01F800000000007E000000
01F800000000007E000000
01F800000000007E000000
01F800000000007E000000
01F800000000007E000000
01F800000000007E000000
01F800000000007E000000
01F800000000007E000000
01F800000000007E000000
01F800000000007E000000
01F800000000007E000000
01F800000000007E000000
01F800000000007E000000
01F800000000007E000000
01F800000000007E000000
01F800000000007E000000
01F800000000007E000000
01F800000000007E000000
01F800000000007E000000
01F800000000007E000000
01F800000000007E000000
01FC0000000000FE000000
01FFFFFFFFFFFFFE000000
01FFFFFFFFFFFFFE000000
01FFFFFFFFFFFFFE000000
01FFFFFFFFFFFFFE000000
00FFFFFFFFFFFFFC000000
007FFFFFFFFFFFF8000000
00003FFFFFFFF000000000
00003FFFFFFFE000000000
0000000000000000000000
0000000000000000006000
01FFFFFFFFFFFFFFFFFF00
01FFFFFFFFFFFFFFFFFFC0
01FFFFFFFFFFFFFE000070
01FFFFFFFFFFFFFE000030
01FFFFFFFFFFFFFE000010
01FFFFFFFFFFFFFE000018
01FFFFFFFFFFFFFE000018
01FFFFFFFFFFFFFE000030
01FFFFFFFFFFFFFE0001F0
01FFFFFFFFFFFFFE001FC0
01FFFFFFFFFFFFFE00FE00
01FFFFFFFFFFFFFE03C000
0000000000000000060000
01FFFFFFFFFFFFFE060000
03FFFFFFFFFFFFFF03E000
03FFFFFFFFFFFFFF00F800
07800000000FF007800C00
07000000000FF003800600
0F000000000FF803C00000
0F000000000FF801C007F8
1E000000000FF801E01FFE
1E000000000FFC01E01FFF
3C0000000007FC00F01FFF
3C0000000007FC00F01FFF
7FFFFFFFFFFFFFFFF807FE
7FFFFFFFFFFFFFFFF80000
FFFFFFFFFFFFFFFFFC0000
ENDCHAR

STARTCHAR W
ENCODING 87
SWIDTH 790 0
DWIDTH 79 0
BBX 58 65 1 2
BITMAP
0000001800000000
000000FE00000000
000003EF80000000
00000F81F0000000
00003E007C000000
0001F8001F000000
0007C00003E00000
001F000000F80000
007C0000001F0000
03F000000007C000
0F8000000000F000
3E00000000003E00
F800000000000F80
F0000000000007C0
FC00000000001FC0
FF80000000007FC0
C7E000000001F9C0
C1FC00000007E1C0
C03F0000003F81C0
C00FE00000FE01C0
C003FC0003F001C0
C0007F000FC001C0
C0001FE03F0001C0
C00003F8FC0001C0
C00000FFF00001C0
C000003FC00001C0
C0000007000001C0
C0000007000001C0
C0000007000001C0
C0000007000001C0
C0000007000001C0
C0000007000001C0
C0000007000001C0
C0000007000001C0
C0000007000001C0
C0000007000001C0
C0000007000001C0
C0000007000001C0
C0000007000001C0
C0000007000001C0
C0000007000001C0
C0000007000001C0
C0000007000001C0
C0000007000001C0
C0000007000001C0
C0000007000001C0
C0000007000001C0
C0000007000001C0
C0000007000001C0
F0000007000003C0
3C00000700000FC0
0F00000700003F00
03C000070000FC00
00F000070001F000
003C00070007C000
000F0007001F0000
0003C007007E0000
0000F00701F80000
00003C0703E00000
00000F870F800000
000003E73E000000
000000FFF8000000
0000003FE0000000
0000000FC0000000
0000000300000000
ENDCHAR

STARTCHAR X
ENCODING 88
SWIDTH 860 0
DWIDTH 86 0
BBX 59 64 2 2
BITMAP
FFFFFFFFFFFFFFE0
FFFFFFFFFFFFFFE0
FFFFFFFFFFFFFFE0
FFFFFFFFFFFFFFE0
FFFFFFFFFFFFFFE0
FFFFFFFDFFFFFFE0
FFFFFFFCFFFFFFE0
FFFFFFFCFFFFFFE0
FFFFFFFC7FFFFFE0
FFFFFFFC3FFFFFE0
FFFFFFFC1FFFFFE0
FFFFFFFC0FFFFFE0
FFFFFFFC07FFFFE0
FFFFFFFC07FFFFE0
FFFFFFFC03FFFFE0
FFFFFFFC01FFFFE0
FFFFFFFC00FFFFE0
00000000007FFFE0
00000000007FFFE0
00000000003FFFE0
00000000001FFFE0
00000000000FFFE0
000000000007FFE0
000000000003FFE0
000000000003FFE0
000000000001FFE0
000000000000FFE0
0000000000007FE0
0000000000003FE0
0000000000001FE0
0000000000001FE0
0000000000000FE0
0000000000001FE0
0000000000003FE0
0000000000007FE0
0000000000007FE0
000000000000FFE0
000000000001FFE0
000000000003FFE0
000000000003FFE0
000000000007FFE0
00000000000FFFE0
00000000001FFFE0
00000000001FFFE0
00000000003FFFE0
00000000007FFFE0
0000000000FFFFE0
FFFFFFFC00FFFFE0
FFFFFFFC01FFFFE0
FFFFFFFC03FFFFE0
FFFFFFFC07FFFFE0
FFFFFFFC07FFFFE0
FFFFFFFC0FFFFFE0
FFFFFFFC1FFFFFE0
FFFFFFFC3FFFFFE0
FFFFFFFC7FFFFFE0
FFFFFFFC7FFFFFE0
FFFFFFFCFFFFFFE0
FFFFFFFDFFFFFFE0
FFFFFFFFFFFFFFE0
FFFFFFFFFFFFFFE0
FFFFFFFFFFFFFFE0
FFFFFFFFFFFFFFE0
FFFFFFFFFFFFFFE0
ENDCHAR

STARTCHAR Y
ENCODING 89
SWIDTH 804 0
DWIDTH 80 0
BBX 61 75 1 0
BITMAP
0000000040000000
0000000040000000
0000000060000000
0000000070000000
0000000070000000
0000000078000000
000000006C000000
0000000066000000
0000000066000000
0000000063000000
0000000061800000
0000000061C00000
0000000060C00000
0000000068600000
0000000068300000
0000000068380000
000000006C180000
000000006A0C0000
000000006B0E0000
0000000069070000
0000000069830000
0000000068C38000
FFFFFFFFE841C000
FFFFFFFFE860E000
C00000000830E000
C000000008187000
DFFFFFFFF8183800
DFFFFFFFF80C3C00
D800000000061C00
D800000000060E00
D800000000030700
D800000000018780
D80000000001C380
D80000000000C1C0
D8000000000061E0
D8000000000070E0
D800000000003070
D800000000003878
D800000000001838
D800000000003030
D800000000002060
D8000000000040C0
D80000000000C1C0
D800000000008180
D800000000010300
D800000000020600
D800000000060E00
D800000000040C00
DFFFFFFFFC081800
DFFFFFFFFC103000
C00000000C107000
C00000000C206000
FFFFFFFFEC40C000
FFFFFFFFEC418000
000000006C838000
000000006D030000
000000006E060000
000000006E0C0000
000000006C180000
0000000068180000
0000000068300000
0000000060600000
0000000060C00000
0000000060C00000
0000000061800000
0000000063000000
0000000062000000
0000000066000000
000000006C000000
0000000078000000
0000000070000000
0000000070000000
0000000060000000
0000000040000000
0000000040000000
ENDCHAR

STARTCHAR Z
ENCODING 90
SWIDTH 1220 0
DWIDTH 122 0
BBX 93 66 1 0
BITMAP
800000000000000000000000
700000000000000000000000
3E0000000000000000000000
1FC000000000000000000000
0E7800000000000000000000
070F00000000000000000000
0381E0000000000000000000
01C038000000000000000000
00E007000000000000000000
007000E00000000000000000
0038001C0000000000000000
001C00078000000000000000
000E0000F000000000000000
000700001C00000000000000
000380000380000000000000
0001C0000070000000000000
0000E000000E000000000000
000070000001C00000000000
000038000000380000000000
00001C000000070000000000
00000E00000000C000000000
000007000000001800000000
000003800000000300000000
000001C00000000060000000
000001E0000000001C000000
000000F00000000003800000
000000780000000000600000
0000003C00000000000C0000
0000001E0000000000018000
0000000F0000000000003000
000000078000000000000600
00000003FFFFFFFFFFFFFFC0
00000001FFFFFFFFFFFFFFF8
00000001FFFFFFFFFFFFFFF8
00000003FFFFFFFFFFFFFFC0
00000007FFFFFFFFFFFFFE00
0000000FFFFFFFFFFFFFF000
0000001FFFFFFFFFFFFF8000
0000001FFFFFFFFFFFFE0000
0000003FFFFFFFFFFFF00000
0000007FFFFFFFFFFF800000
000000FFFFFFFFFFFC000000
000001FFFFFFFFFFE0000000
000003FFFFFFFFFF80000000
000007FFFFFFFFFC00000000
00000FFFFFFFFFE000000000
00001FFFFFFFFF0000000000
00003FFFFFFFF80000000000
00007FFFFFFFC00000000000
0000FFFFFFFF000000000000
0001FFFFFFF8000000000000
0003FFFFFFC0000000000000
0007FFFFFE00000000000000
0007FFFFF000000000000000
000FFFFF8000000000000000
001FFFFE0000000000000000
003FFFF00000000000000000
007FFF800000000000000000
00FFFC000000000000000000
01FFE0000000000000000000
03FF00000000000000000000
07FC00000000000000000000
0FE000000000000000000000
1F0000000000000000000000
380000000000000000000000
400000000000000000000000
ENDCHAR

STARTCHAR bracketleft
ENCODING 91
SWIDTH 1260 0
DWIDTH 126 0
BBX 95 39 1 11
BITMAP
000000000000040000000000
000000000000030000000000
00000000000001C000000000
00000000000000F800000000
000000000000007E00000000
000000000000003F80000000
000000000000001FE0000000
000000000000000FF8000000
0000000000000007FF000000
0000000000000003FFC00000
0000000000000001FFF00000
0000000000000000FFFC0000
0000000000000000FFFF0000
00000000000000007FFFE000
00000000000000003FFFF800
00000000000000001FFFFE00
FFFFFFFFFFFFFFFFFFFFFF80
FFFFFFFFFFFFFFFFFFFFFFE0
FFFFFFFFFFFFFFFFFFFFFFFC
FFFFFFFFFFFFFFFFFFFFFFFE
FFFFFFFFFFFFFFFFFFFFFFF0
FFFFFFFFFFFFFFFFFFFFFFC0
00000000000000001FFFFF00
00000000000000003FFFFC00
00000000000000003FFFF000
00000000000000007FFFC000
0000000000000000FFFF0000
0000000000000001FFFC0000
0000000000000003FFF00000
0000000000000007FF800000
0000000000000007FE000000
000000000000000FF8000000
000000000000001FE0000000
000000000000003F80000000
000000000000007E00000000
000000000000007800000000
00000000000000E000000000
000000000000018000000000
000000000000020000000000
ENDCHAR

STARTCHAR backslash
ENCODING 92
SWIDTH 915 0
DWIDTH 92 0
BBX 64 64 1 3
BITMAP
00000001C0000000
00000021C1000000
00000071C3800000
00000039C7000000
0000001DCE000000
0001C00FDC00C000
0001C007F000C000
0001C003E000C000
0001C001C000C000
0023C021C100E200
007380F1C380E700
003B8671C330EE00
001F8771C770FC00
000F8339C660F800
07FF8339CE60FFE0
07FFC399CCE1FFE0
07FFE19DCCC3FFE0
0001F19DDCC78000
0000F9CFD9CF0000
00007CCFF99E0000
00003EE7F3BC0000
00181FE7F3F80800
001F0FE3E3F07C00
000FE7F3E7E3F800
2021FFF1C7DFC204
70783FF1C7FE0E0E
383E0FF9CFF83C1C
180F81F9CFC0F018
0C03F03DDE07C038
06007C0FF81F0070
03001F07F07C00E0
FFFFFFFFFFFFFFFF
FFFFFFFFFFFFFFFF
FFFFFFFFFFFFFFFF
07001F87F0FC0070
0E007E0FF83F0038
1C03F81DDC0FC01C
381FE0F9CF83F80E
707F07F1C7F07E06
203C1FF1C7FC1E04
0030FFF3E7FF8600
0007F3E3E3E7F000
001F87E7F3F0FC00
001C0EC7F1B81800
00001CCFF99C0000
000039CFD9CE0000
0000719DDCC70000
07C0E19DCCC38000
07FFC339CE61FFE0
07FF8339C660FFE0
007F8371C760FF00
000F8671C330F800
001F86F1C3B0FC00
007B80E1C180EE00
00338061C100E700
00038001C000C200
00038003C000C000
00038007E000C000
0003800FF000C000
0000001DDC000000
00000039CE000000
00000071C7800000
00000021C3000000
00000001C0000000
ENDCHAR

STARTCHAR bracketright
ENCODING 93
SWIDTH 1292 0
DWIDTH 129 0
BBX 97 40 1 13
BITMAP
000000007FFFEFF80000000000
00000003FFFFFBFFFFFFFFFC00
0000001FFFFFFCFFFFFFFFFF00
000000FFFFFFFF3FFFFFFFFF80
000003FFFFFFFFDFFFFFFFFF80
00000FFFFFFFFFE7FFFFFFFF80
00003FFFFFFFFFF9FFFFFFFF80
00007FFFFFFFFFFE7FFFFFFF00
FF81FFFFFFFFFFFFBFFFFFFF00
FF87FFFFFFFFFFFFCFFFFFFE00
FF8FFFFFFFFFFFFFF000000000
FF8FFFFFFFFFFFFFF800000000
FF8FFFFFFFFFFFFFF000000000
FF8FFFFFFF803FFFF000000000
FF8FFFFFFF7FDFFFE000000000
FF8FFFFFFF7FF7FFC000000000
FF8FFFFFFEFFC0FF8000000000
FF8FFFFFFCFE3FFFF800000000
FF8FFFFFF9FCFFFFFE00000000
FF8FFFFFE7F9FFFFFF00000000
FF8FFFFF9FF1FFFFFF00000000
FF8FFFFE3FF1FFFFFF00000000
FF8FFFF9FFF9FFFFFF00000000
FF81FFCFFFFCFFFFFE00000000
FF8F00FFFFFF3FFFF800000000
FF8FFFFFFFFF3FFFF000000000
FF8FFFFFFFFCFFFFF800000000
FF8FFFFFFFF9FFFFFC00000000
FF8FFFFFFFF9FFFFFC00000000
FF8FFFFFFFFCFFFFF800000000
FF8FFFFFFFFE7FFFF000000000
FF8FFFFFFFFF9FFF0000000000
FF8FFFFFFFFF7FFFC000000000
FF8FFFFFFFFEFFFFE000000000
FF87FFFFFFFFFFFFF000000000
FF81FFFFFFFFFFFFF000000000
FF807FFFFFFEFFFFE000000000
00000FFFFFFF00000000000000
000001FFFFFF00000000000000
0000001FFFF800000000000000
ENDCHAR

STARTCHAR asciicircum
ENCODING 94
SWIDTH 940 0
DWIDTH 94 0
BBX 52 3 20 28
BITMAP
FFFFFFFFFFFFF0
FFFFFFFFFFFFF0
FFFFFFFFFFFFF0
ENDCHAR

STARTCHAR underscore
ENCODING 95
SWIDTH 1164 0
DWIDTH 116 0
BBX 89 3 12 28
BITMAP
FFFFFFFFFFFFFFFFFFFFFF80
FFFFFFFFFFFFFFFFFFFFFF80
FFFFFFFFFFFFFFFFFFFFFF80
ENDCHAR

STARTCHAR grave
ENCODING 96
SWIDTH 720 0
DWIDTH 72 0
BBX 49 49 1 12
BITMAP
00000FF0000000
0000FFFF000000
0003E003E00000
000F0000780000
001C00001C0000
00700000070000
00E00000038000
0180000001C000
0300000000E000
06000000007000
0E000000003000
0C000000001800
18000000000C00
18000000000C00
30000000000600
30000000000600
60000000000300
60000000000300
40000000000300
C0000000000180
C0000000000180
C0000000000180
C0000000000180
C0000000000180
C0000000000180
C0000000000180
C0000000000180
C0000000000180
C0000000000180
C0000000000180
40000000000300
60000000000300
60000000000300
60000000000600
30000000000600
30000000000400
18000000000C00
18000000001800
0C000000001800
06000000003000
03000000006000
0380000000C000
00C00000018000
00700000070000
003800000E0000
001E0000380000
0007C001F00000
0000FFFF800000
00001FFC000000
ENDCHAR

STARTCHAR a
ENCODING 97
SWIDTH 720 0
DWIDTH 72 0
BBX 47 48 8 13
BITMAP
00001FF00000
0000FFFE0000
0007FFFF8000
001FFFFFE000
003FFFFFF800
007FFFFFFC00
01FFFFFFFE00
03FFFFFFFF00
03FFFFFFFF80
07FFFFFFFFC0
0FFFFFFFFFE0
1FFFFFFFFFF0
1FFFFFFFFFF0
3FFFFFFFFFF8
3FFFFFFFFFF8
7FFFFFFFFFFC
7FFFFFFFFFFC
7FFFFFFFFFFC
FFFFFFFFFFFC
FFFFFFFFFFFE
FFFFFFFFFFFE
FFFFFFFFFFFE
FFFFFFFFFFFE
FFFFFFFFFFFE
FFFFFFFFFFFE
FFFFFFFFFFFE
FFFFFFFFFFFE
FFFFFFFFFFFE
FFFFFFFFFFFE
FFFFFFFFFFFC
7FFFFFFFFFFC
7FFFFFFFFFFC
7FFFFFFFFFFC
3FFFFFFFFFF8
3FFFFFFFFFF8
1FFFFFFFFFF0
1FFFFFFFFFF0
0FFFFFFFFFE0
07FFFFFFFFC0
07FFFFFFFFC0
03FFFFFFFF80
01FFFFFFFF00
00FFFFFFFE00
003FFFFFF800
001FFFFFF000
0007FFFFC000
0001FFFF0000
00003FF80000
ENDCHAR

STARTCHAR b
ENCODING 98
SWIDTH 1272 0
DWIDTH 127 0
BBX 107 45 5 10
BITMAP
000000000000000000007F800000
00000000000000000007FFF80000
0000000000000000001FFFFE0000
0000000000000000007FFFFF8000
000000000000000000FFFFFFC000
000000000000000003FFFFFFE000
000000000000000007FFFFFFF000
00000000000000000FFFFFFFF800
0000000007F000001FFFFFFFFC00
000000003FFE00001FFFFFFFFE00
000000007FFF80003FFFFFFFFE00
00000000FFFFC0007FFFFFFFFF00
03E00003FFFFE0007FFFFFFFFF80
0FFC0003FFFFF000FFFFFFFFFF80
1FFE0007FFFFF800FFFFFFFFFF80
3FFF000FFFFFF800FFFFFFFFFFC0
7FFF800FFFFFFC01FFFFFFFFFFC0
7FFF800FFFFFFC01FFFFFFFFFFC0
FFFF801FFFFFFE01FFFFFFFFFFE0
FFFFC01FFFFFFE01FFFFFFFFFFE0
FFFFC01FFFFFFE01FFFFFFFFFFE0
FFFFC01FFFFFFE01FFFFFFFFFFE0
FFFFC01FFFFFFE03FFFFFFFFFFE0
FFFFC01FFFFFFE03FFFFFFFFFFE0
7FFF801FFFFFFE01FFFFFFFFFFE0
7FFF801FFFFFFC01FFFFFFFFFFE0
3FFF000FFFFFFC01FFFFFFFFFFE0
1FFE000FFFFFFC01FFFFFFFFFFC0
0FFC0007FFFFF801FFFFFFFFFFC0
03F00007FFFFF000FFFFFFFFFFC0
00000003FFFFF000FFFFFFFFFFC0
00000001FFFFE000FFFFFFFFFF80
00000000FFFF80007FFFFFFFFF80
000000003FFF00007FFFFFFFFF00
0000000007F800003FFFFFFFFF00
00000000000000001FFFFFFFFE00
00000000000000001FFFFFFFFC00
00000000000000000FFFFFFFF800
000000000000000007FFFFFFF000
000000000000000003FFFFFFE000
000000000000000001FFFFFFC000
0000000000000000007FFFFF8000
0000000000000000003FFFFE0000
0000000000000000000FFFF80000
00000000000000000000FFC00000
ENDCHAR

STARTCHAR c
ENCODING 99
SWIDTH 556 0
DWIDTH 56 0
BBX 35 71 0 0
BITMAP
F800000000
FF80000000
FFF0000000
FFFC000000
FFFF000000
FFFFC00000
FFFFE00000
FFFFF00000
FFFFFC0000
FFFFFE0000
FFFFFF0000
FFFFFF8000
FFFFFFC000
FFFFFFE000
FFFFFFF000
FFFFFFF000
FFFFFFF800
FFFFFFFC00
FFFFFFFC00
FFFFFFFE00
FFFFFFFE00
FFFFFFFF00
FFFFFFFF00
FFFFFFFF80
FFFFFFFF80
FFFFFFFF80
FFFFFFFFC0
FFFFFFFFC0
FFFFFFFFC0
FFFFFFFFC0
FFFFFFFFC0
FFFFFFFFE0
FFFFFFFFE0
FFFFFFFFE0
FFFFFFFFE0
FFFFFFFFE0
FFFFFFFFE0
FFFFFFFFE0
FFFFFFFFE0
FFFFFFFFE0
FFFFFFFFE0
FFFFFFFFC0
FFFFFFFFC0
FFFFFFFFC0
FFFFFFFFC0
FFFFFFFF80
FFFFFFFF80
FFFFFFFF80
FFFFFFFF00
FFFFFFFF00
FFFFFFFE00
FFFFFFFE00
FFFFFFFC00
FFFFFFF800
FFFFFFF800
FFFFFFF000
FFFFFFE000
FFFFFFC000
FFFFFFC000
FFFFFF8000
FFFFFF0000
FFFFFE0000
FFFFF80000
FFFFF00000
FFFFE00000
FFFF800000
FFFF000000
FFFC000000
FFF0000000
FF80000000
F800000000
ENDCHAR

STARTCHAR d
ENCODING 100
SWIDTH 616 0
DWIDTH 62 0
BBX 39 76 5 2
BITMAP
8000000000
6000000000
1C00000000
0380000000
01E0000000
007C000000
001F000000
000FC00000
0003F00000
0001F80000
00007E0000
00003F0000
00001FC000
000007E000
000003F000
000001F800
000000FC00
0000007F00
0000003F00
0000003F80
0000001FC0
0000000FC0
0000000FE0
00000007F0
00000007F0
00000003F8
00000003F8
00000003F8
00000003FC
00000001FC
00000001FC
00000001FC
00000003FE
00000003FE
00000003FE
00000003FE
00000003FE
00000007FE
00000007FE
00000007FE
0000000FFE
0000000FFE
0000001FFE
0000001FFE
0000003FFC
0000007FFC
0000007FFC
000000FFFC
000001FFF8
000003FFF8
000007FFF8
00000FFFF0
00001FFFF0
00003FFFE0
00007FFFE0
0000FFFFC0
0003FFFFC0
0007FFFF80
001FFFFF80
00FFFFFF00
03FFFFFE00
3FFFFFFC00
3FFFFFF800
3FFFFFF000
3FFFFFE000
3FFFFFC000
3FFFFF8000
3FFFFF0000
3FFFFE0000
3FFFF80000
3FFFF00000
3FFFC00000
3FFF000000
3FFC000000
3FF0000000
3E00000000
ENDCHAR

STARTCHAR e
ENCODING 101
SWIDTH 956 0
DWIDTH 96 0
BBX 77 74 1 0
BITMAP
00000001F00000000000
000000007C0000000000
000000001F0000000000
0000000007C000000000
0000000001F000000000
00000000007800000000
00000000003E00000000
00000000000F80000000
000000000003E0000000
000000000000F8000000
0000000000007E000000
0000000000001F000000
00000000000007C00000
00000000000001F00000
000000000000007C0000
000000000000003F0000
000000000000000F8000
0000000000000003E000
0000000000000000F800
00000000000000003E00
00000000000000001F80
000000000000000007E0
000000000000000001F0
000000000000000000F8
000000000000000001F0
000000000000000007E0
00000000000000000FC0
00000000000000003F80
00000000000000007F00
0000000000000000FE00
0000000000000003FC00
0000000000000007F800
000000000000001FF800
000000000000003FF000
00000000000000FFE000
00000000000001FFC000
00000000000003FF8000
0000000000000FFF0000
0000000000001FFE0000
0000000000007FFC0000
000000000000FFF80000
000000000003FFF80000
000000000007FFF00000
00000000000FFFE00000
00000000003FFFC00000
00000000007FFF800000
0000000001FFFF000000
0000000003FFFE000000
000000000FFFFC000000
000000001FFFF8000000
000000003FFFF8000000
00000000FFFFF0000000
00000001FFFFE0000000
00000007FFFFC0000000
0000000FFFFF80000000
0000003FFFFF00000000
0000007FFFFE00000000
000000FFFFFC00000000
000003FFFFF800000000
000007FFFFF800000000
00001FFFFFF000000000
00003FFFFFE000000000
0000FFFFFFC000000000
0001FFFFFF8000000000
0003FFFFFF0000000000
000FFFFFFE0000000000
001FFFFFFC0000000000
007FFFFFF80000000000
00FFFFFFF80000000000
03FFFFFFF00000000000
07FFFFFFE00000000000
0FFFFFFFC00000000000
3FFFFFFF800000000000
FFFFFFFF000000000000
ENDCHAR

STARTCHAR f
ENCODING 102
SWIDTH 932 0
DWIDTH 93 0
BBX 74 74 4 0
BITMAP
00000000180000000000
00000000180000000000
000000003C0000000000
000000003C0000000000
000000007E0000000000
000000007E0000000000
00000000FF0000000000
00000000FF0000000000
00000000FF8000000000
00000001FF8000000000
00000001FFC000000000
00000003FFC000000000
00000003FFE000000000
00000007FFE000000000
00000007FFF000000000
0000000FFEF000000000
0000000FFCF800000000
0000001FFC7800000000
0000001FFC7C00000000
0000003FF83C00000000
0000003FF83E00000000
0000007FF81E00000000
0000007FF01F00000000
000000FFF00F00000000
000000FFF00F80000000
000001FFF00780000000
000001FFE007C0000000
000003FFE003C0000000
000003FFE003E0000000
000007FFC001E0000000
000007FFC001F0000000
00000FFFC000F0000000
00000FFF8000F8000000
00000FFF800078000000
00001FFF80007C000000
00001FFF00003C000000
00003FFF00003E000000
00003FFF00001E000000
00007FFE00001F000000
00007FFE00000F800000
0000FFFE00000F800000
0000FFFE000007C00000
0001FFFC000007C00000
0001FFFC000003E00000
0003FFFC000003E00000
0003FFF8000001F00000
0007FFF8000001F00000
0007FFF8000000F80000
000FFFF0000000F80000
000FFFF00000007C0000
001FFFF00000007C0000
001FFFE00000003E0000
003FFFE00000003E0000
003FFFE00000001F0000
007FFFE00000001F0000
007FFFC00000000F8000
00FFFFC00000000F8000
00FFFFC000000007C000
00FFFF8000000007C000
01FFFF8000000003E000
01FFFF8000000003E000
03FFFF0000000001F000
03FFFF0000000001F000
07FFFF0000000000F800
07FFFE0000000000F800
0FFFFE00000000007C00
0FFFFE00000000007C00
1FFFFC00000000003E00
1FFFFC00000000003E00
3FFFFC00000000001F00
3FFFFC00000000001F00
7FFFF800000000000F80
7FFFFFFFFFFFFFFFFF80
FFFFFFFFFFFFFFFFFFC0
ENDCHAR

STARTCHAR g
ENCODING 103
SWIDTH 956 0
DWIDTH 96 0
BBX 79 54 6 10
BITMAP
00000000030000000000
00000000038000000000
0000000007C000000000
000000000FC000000000
000000000FE000000000
000000001FF000000000
000000003FF000000000
000000007FF800000000
000000007FFC00000000
00000000FFFE00000000
00000001FFFE00000000
00000001FFFF00000000
00000003FFFF80000000
00000007FFFFC0000000
0000000FFFFFC0000000
0000000FFFFFE0000000
0000001FFFFFF0000000
0000003FFFFFF0000000
0000007FFFFFF8000000
0000007FFFFFFC000000
000000FFFFFFFE000000
000001FFFFFFFE000000
000001FFFFFFFF000000
000003FFFFFFFF800000
000007FFFFFFFFC00000
00000FFFFFFFFFC00000
00000FFFFFFFFFE00000
00001FFFFFFFFFF00000
00003FFFFFFFFFF00000
00003FFFFFFFFFF80000
00007FFFFFFFFFFC0000
0000FFFFFFFFFFFE0000
0001FFFFFFFFFFFE0000
0001FFFFFFFFFFFF0000
0003FFFFFFFFFFFF8000
0007FFFFFFFFFFFFC000
0007FFFFFFFFFFFFC000
000FFFFFFFFFFFFFE000
001FFFFFFFFFFFFFF000
003FFFFFFFFFFFFFF800
003FFFFFFFFFFFFFF800
007FFFFFFFFFFFFFFC00
00FFFFFFFFFFFFFFFE00
01FFFFFFFFFFFFFFFE00
01FFFFFFFFFFFFFFFF00
03FFFFFFFFFFFFFFFF80
07FFFFFFFFFFFFFFFFC0
07FFFFFFFFFFFFFFFFC0
0FFFFFFFFFFFFFFFFFE0
1FFFFFFFFFFFFFFFFFF0
3FFFFFFFFFFFFFFFFFF8
3FFFFFFFFFFFFFFFFFF8
7FFFFFFFFFFFFFFFFFFC
FFFFFFFFFFFFFFFFFFFE
ENDCHAR

STARTCHAR h
ENCODING 104
SWIDTH 620 0
DWIDTH 62 0
BBX 47 65 4 6
BITMAP
000000800000
000001C00000
000003E00000
000007E00000
00000FF00000
00000FF80000
00001FFC0000
00003FFC0000
00007FFE0000
00007FFF0000
0000FFFF8000
0001FFFF8000
0003FFFFC000
0007FFFFE000
0007FFFFE000
000FFFFFF000
001FFFFFF800
003FFFFFFC00
007FFFFFFC00
007FFFFFFE00
00FFFFFFFF00
01FFFFFFFF80
03FFFFFFFF80
07FFFFFFFFC0
07FFFFFFFFE0
0FFFFFFFFFF0
1FFFFFFFFFF0
3FFFFFFFFFF8
7FFFFFFFFFFC
7FFFFFFFFFFC
FFFFFFFFFFFE
7FFFFFFFFFFC
7FFFFFFFFFFC
3FFFFFFFFFF8
1FFFFFFFFFF8
0FFFFFFFFFF0
0FFFFFFFFFE0
07FFFFFFFFE0
03FFFFFFFFC0
03FFFFFFFF80
01FFFFFFFF80
00FFFFFFFF00
00FFFFFFFE00
007FFFFFFE00
003FFFFFFC00
001FFFFFFC00
001FFFFFF800
000FFFFFF000
0007FFFFF000
0007FFFFE000
0003FFFFC000
0001FFFFC000
0001FFFF8000
0000FFFF0000
00007FFF0000
00007FFE0000
00003FFE0000
00001FFC0000
00000FF80000
00000FF80000
000007F00000
000003E00000
000003E00000
000001C00000
000000C00000
ENDCHAR

STARTCHAR i
ENCODING 105
SWIDTH 620 0
DWIDTH 62 0
BBX 47 65 4 6
BITMAP
000000800000
000001C00000
000003E00000
000007E00000
00000FF00000
00000FF80000
00001FFC0000
00003FBC0000
00007F9E0000
00007F8F0000
0000FF0F8000
0001FF078000
0003FE03C000
0007FE01E000
0007FC01E000
000FFC00F000
001FF8007800
003FF8007C00
007FF0003C00
007FF0001E00
00FFE0000F00
01FFE0000F80
03FFC0000780
07FFC00003C0
07FF800001E0
0FFF800001F0
1FFF800000F0
3FFF00000078
7FFF0000007C
7FFE0000003C
FFFE0000001E
7FFE0000003C
7FFE0000003C
3FFF00000078
1FFF00000078
0FFF800000F0
0FFF800001E0
07FF800001E0
03FFC00003C0
03FFC0000780
01FFE0000780
00FFE0000F00
00FFE0001E00
007FF0001E00
003FF0003C00
001FF8003C00
001FF8007800
000FFC00F000
0007FC00F000
0007FC01E000
0003FE03C000
0001FE03C000
0001FF078000
0000FF0F0000
00007F0F0000
00007F9E0000
00003F9E0000
00001FFC0000
00000FF80000
00000FF80000
000007F00000
000003E00000
000003E00000
000001C00000
000000C00000
ENDCHAR

STARTCHAR j
ENCODING 106
SWIDTH 1023 0
DWIDTH 102 0
BBX 91 52 5 13
BITMAP
00000000000E000000000000
00000000001F800000000000
00000000007FE00000000000
0000000001FFF00000000000
0000000007FFFC0000000000
000000001FFFFF0000000000
000000003FFFFF8000000000
00000000FFFFFFE000000000
00000003FFFFFFF800000000
0000000FFFFFFFFC00000000
0000003FFFFFFFFF00000000
000000FFFFFFFFFFC0000000
000001FFFFFFFFFFE0000000
000007FFFFFFFFFFF0000000
00001FFFFFFFFFFFFC000000
00003FFFFFFFFFFFFF000000
0000FFFFFFFFFFFFFFC00000
0003FFFFFFFFFFFFFFE00000
000FFFFFFFFFFFFFFFF80000
001FFFFFFFFFFFFFFFFE0000
007FFFFFFFFFFFFFFFFF8000
01FFFFFFFFFFFFFFFFFFC000
07FFFFFFFFFFFFFFFFFFF000
1FFFFFFFFFFFFFFFFFFFFC00
3FFFFFFFFFFFFFFFFFFFFE00
FFFFFFFFFFFFFFFFFFFFFF80
3FFFFFFFFFFFFFFFFFFFFFE0
0FFFFFFFFFFFFFFFFFFFFFC0
07FFFFFFFFFFFFFFFFFFFF00
01FFFFFFFFFFFFFFFFFFFC00
007FFFFFFFFFFFFFFFFFF000
003FFFFFFFFFFFFFFFFFC000
000FFFFFFFFFFFFFFFFF8000
0003FFFFFFFFFFFFFFFE0000
0000FFFFFFFFFFFFFFF80000
00007FFFFFFFFFFFFFE00000
00001FFFFFFFFFFFFF800000
000007FFFFFFFFFFFF000000
000000FFFFFFFFFFFC000000
000000FFFFFFFFFFE0000000
0000007FFFFFFFFFE0000000
0000001FFFFFFFFF80000000
00000007FFFFFFFE00000000
00000003FFFFFFF800000000
00000000FFFFFFE000000000
000000003FFFFFC000000000
000000001FFFFF0000000000
0000000007FFFC0000000000
0000000001FFF00000000000
0000000000FFC00000000000
00000000003F000000000000
00000000000E000000000000
ENDCHAR

STARTCHAR k
ENCODING 107
SWIDTH 930 0
DWIDTH 93 0
BBX 78 79 7 0
BITMAP
00000000020000000000
00000000020000000000
00000000020000000000
00000000020000000000
00000000020000000000
00000000020000000000
00000000020000000000
00000000060000000000
00000000070000000000
00000000070000000000
00000000070000000000
00000000070000000000
000000000F0000000000
000000000F8000000000
000000000F8000000000
000000001F8000000000
000000001FC000000000
000000001FC000000000
000000003FC000000000
000000003FE000000000
000000007FE000000000
000000007FF000000000
00000000FFF800000000
00000001FFF800000000
00000001FFFC00000000
00000003FFFE00000000
00000007FFFF00000000
0000000FFFFF80000000
0000001FFFFFC0000000
0000003FFFFFE0000000
0000007FFFFFF0000000
000000FFFFFFF8000000
000001FFFFFFFC000000
000007FFFFFFFF000000
00001FFFFFFFFF800000
00007FFFFFFFFFE00000
0001FFFFFFFFFFFC0000
000FFFFFFFFFFFFF8000
01FFFFFFFFFFFFFFF800
FFFFFFFFFFFFFFFFFFFC
00FFFFFFFFFFFFFFE000
000FFFFFFFFFFFFE0000
0003FFFFFFFFFFF00000
0000FFFFFFFFFFC00000
00001FFFFFFFFF800000
00000FFFFFFFFE000000
000007FFFFFFFC000000
000001FFFFFFF8000000
000000FFFFFFE0000000
0000007FFFFFE0000000
0000003FFFFFC0000000
0000001FFFFF80000000
0000000FFFFF00000000
00000007FFFE00000000
00000003FFFE00000000
00000003FFFC00000000
00000001FFF800000000
00000000FFF800000000
00000000FFF000000000
000000007FF000000000
000000007FE000000000
000000003FE000000000
000000003FC000000000
000000001FC000000000
000000001FC000000000
000000000F8000000000
000000000F8000000000
000000000F8000000000
00000000070000000000
00000000070000000000
00000000070000000000
00000000070000000000
00000000070000000000
00000000030000000000
00000000020000000000
00000000020000000000
00000000020000000000
00000000020000000000
00000000020000000000
ENDCHAR

STARTCHAR l
ENCODING 108
SWIDTH 548 0
DWIDTH 55 0
BBX 31 71 6 0
BITMAP
80000000
C0000000
E0000000
F0000000
F8000000
FC000000
FE000000
FF000000
FF800000
FFC00000
FFE00000
FFF00000
FFF80000
FFF80000
FFFC0000
FFFE0000
FFFF0000
FFFF8000
FFFFC000
FFFFE000
FFFFF000
FFFFF800
FFFFFC00
FFFFFE00
FFFFFF00
FFFFFF80
FFFFFF80
FFFFFFC0
FFFFFFE0
FFFFFFF0
FFFFFFF8
FFFFFFFC
FFFFFFFE
FFFFFFFC
FFFFFFFC
FFFFFFF8
FFFFFFF0
FFFFFFE0
FFFFFFC0
FFFFFFC0
FFFFFF80
FFFFFF00
FFFFFE00
FFFFFC00
FFFFFC00
FFFFF800
FFFFF000
FFFFE000
FFFFE000
FFFFC000
FFFF8000
FFFF0000
FFFE0000
FFFE0000
FFFC0000
FFF80000
FFF00000
FFF00000
FFE00000
FFC00000
FF800000
FF000000
FF000000
FE000000
FC000000
F8000000
F8000000
F0000000
E0000000
C0000000
80000000
ENDCHAR

STARTCHAR m
ENCODING 109
SWIDTH 896 0
DWIDTH 90 0
BBX 70 25 6 20
BITMAP
FFFFFFFFFFFFFFFFFC
7FFFFFFFFFFFFFFFF0
7FFFFFFFFFFFFFFF80
3FFFFFFFFFFFFFFE00
1FFFFFFFFFFFFFF800
1FFFFFFFFFFFFFE000
0FFFFFFFFFFFFF0000
0FFFFFFFFFFFFC0000
07FFFFFFFFFFF00000
07FFFFFFFFFFC00000
03FFFFFFFFFE000000
01FFFFFFFFF8000000
01FFFFFFFFE0000000
00FFFFFFFF00000000
00FFFFFFFC00000000
007FFFFFF000000000
007FFFFFC000000000
003FFFFE0000000000
001FFFF80000000000
001FFFE00000000000
000FFF800000000000
000FFC000000000000
0007F0000000000000
0007C0000000000000
000200000000000000
ENDCHAR

STARTCHAR n
ENCODING 110
SWIDTH 1000 0
DWIDTH 100 0
BBX 90 41 2 16
BITMAP
C00000000000000000000000
3C0000000000000000000000
07C000000000000000000000
00FC00000000000000000000
003FE0000000000000000000
0007FE000000000000000000
0001FFF00000000000000000
00003FFF0000000000000000
00000FFFF000000000000000
000003FFFF80000000000000
0000007FFFF8000000000000
0000001FFFFFC00000000000
00000003FFFFFC0000000000
00000000FFFFFFC000000000
000000001FFFFFFE00000000
0000000007FFFFFFE0000000
0000000000FFFFFFFF000000
00000000003FFFFFFFF00000
000000000007FFFFFFFF8000
000000000001FFFFFFFFF800
0000000000003FFFFFFFFFC0
0000000000000FFFFFFFFF80
00000000000001FFFFFFFC00
000000000000007FFFFFE000
000000000000000FFFFF0000
0000000000000007FFF00000
000000000000001FFF800000
000000000000007FFC000000
00000000000003FFE0000000
0000000000000FFF00000000
0000000000003FF000000000
000000000000FF8000000000
000000000003FC0000000000
00000000001FE00000000000
00000000007F000000000000
0000000001F0000000000000
000000000780000000000000
000000001C00000000000000
00000000E000000000000000
000000070000000000000000
000000080000000000000000
ENDCHAR

STARTCHAR o
ENCODING 111
SWIDTH 1000 0
DWIDTH 100 0
BBX 95 29 0 22
BITMAP
000000000000300000000000
0000000000003C0000000000
0000000000003E0000000000
0000000000003F8000000000
0000000000003FC000000000
0000000000003FF000000000
0000000000003FF800000000
0000000000003FFE00000000
0000000000003FFF00000000
0000000000003FFFC0000000
0000000000003FFFF0000000
0000000000003FFFF8000000
0000000000003FFFFE000000
0000000000003FFFFF000000
FFFFFFFFFFFFFFFFFFC00000
FFFFFFFFFFFFFFFFFFE00000
FFFFFFFFFFFFFFFFFFF80000
FFFFFFFFFFFFFFFFFFFC0000
FFFFFFFFFFFFFFFFFFFF0000
FFFFFFFFFFFFFFFFFFFF8000
FFFFFFFFFFFFFFFFFFFFE000
FFFFFFFFFFFFFFFFFFFFF000
FFFFFFFFFFFFFFFFFFFFFC00
FFFFFFFFFFFFFFFFFFFFFF00
FFFFFFFFFFFFFFFFFFFFFF80
FFFFFFFFFFFFFFFFFFFFFFE0
FFFFFFFFFFFFFFFFFFFFFFF0
FFFFFFFFFFFFFFFFFFFFFFFC
FFFFFFFFFFFFFFFFFFFFFFFE
ENDCHAR

STARTCHAR p
ENCODING 112
SWIDTH 1096 0
DWIDTH 110 0
BBX 98 29 1 18
BITMAP
000003FFFFFFFFFFFFFFFFFFC0
000007FFFFFFFFFFFFFFFFFF80
00000FFFFFFFFFFFFFFFFFFF00
00000FFFFFFFFFFFFFFFFFFF00
00001FFFFFFFFFFFFFFFFFFE00
00003FFFFFFFFFFFFFFFFFFC00
00007FFFFFFFFFFFFFFFFFFC00
00007FFFFFFFFFFFFFFFFFF800
0000FFFFFFFFFFFFFFFFFFF000
0001FFFFFFFFFFFFFFFFFFF000
0003FFFFFFFFFFFFFFFFFFE000
0007FFFFFFFFFFFFFFFFFFC000
0007FFFFFFFFFFFFFFFFFF8000
000FFFFFFFFFFFFFFFFFFF8000
001FFFFFFFFFFFFFFFFFFF0000
003FFFFFFFFFFFFFFFFFFE0000
003FFFFFFFFFFFFFFFFFFE0000
007FFFFFFFFFFFFFFFFFFC0000
00FFFFFFFFFFFFFFFFFFF80000
01FFFFFFFFFFFFFFFFFFF80000
01FFFFFFFFFFFFFFFFFFF00000
03FFFFFFFFFFFFFFFFFFE00000
07FFFFFFFFFFFFFFFFFFE00000
0FFFFFFFFFFFFFFFFFFFC00000
1FFFFFFFFFFFFFFFFFFF800000
1FFFFFFFFFFFFFFFFFFF800000
3FFFFFFFFFFFFFFFFFFF000000
7FFFFFFFFFFFFFFFFFFE000000
FFFFFFFFFFFFFFFFFFFC000000
ENDCHAR

STARTCHAR q
ENCODING 113
SWIDTH 704 0
DWIDTH 70 0
BBX 58 80 1 0
BITMAP
000000007FFFFCC0
00000000FFFFFCC0
00000000FFFFF980
00000001FFFFF980
00000001FFFFF180
00000001FFFFF300
00000003FFFFF300
00000003FFFFE600
00000007FFFFE600
00000007FFFFCC00
0000000FFFFFCC00
0000000FFFFFCC00
0000000FFFFF9800
0000001FFFFF9800
0000001FFFFF3000
0000003FFFFF3000
0000003FFFFE3000
0000003FFFFE6000
0000007FFFFE6000
0000007FFFFCC000
000000FFFFFCC000
000000FFFFF9C000
000000FFFFF98000
000001FFFFF98000
000001FFFFF30000
000003FFFFF30000
000003FFFFE70000
000007FFFFE60000
000007FFFFE60000
000007FFFFCC0000
00000FFFFFCC0000
00000FFFFF980000
00001FFFFF980000
00001FFFFF980000
00001FFFFF300000
00003FFFFF300000
00003FFFFE600000
00007FFFFE600000
00007FFFFEE00000
00007FFFFCC00000
0000FFFFFCC00000
0000FFFFF9800000
0001FFFFF9800000
0001FFFFFB800000
0003FFFFF3000000
0003FFFFF3000000
0003FFFFE6000000
0007FFFFE6000000
0007FFFFEE000000
000FFFFFCC000000
000FFFFFCC000000
000FFFFF98000000
001FFFFF98000000
001FFFFF38000000
003FFFFF30000000
003FFFFF70000000
003FFFFE60000000
007FFFFE60000000
007FFFFCC0000000
00FFFFFCC0000000
00FFFFFDC0000000
01FFFFF980000000
01FFFFF980000000
01FFFFF300000000
03FFFFF300000000
03FFFFF700000000
07FFFFE600000000
07FFFFEE00000000
07FFFFCC00000000
0FFFFFCC00000000
0FFFFFDC00000000
1FFFFF9800000000
1FFFFFB800000000
1FFFFF3000000000
3FFFFF3000000000
3FFFFF7000000000
7FFFFE6000000000
7FFFFEE000000000
FFFFFCC000000000
FFFFFDC000000000
ENDCHAR

STARTCHAR r
ENCODING 114
SWIDTH 1036 0
DWIDTH 104 0
BBX 96 80 0 0
BITMAP
00000000000000000000007F
00000000000000000000007F
0000000000000000000000FE
0000000000000000000000FE
0000000000000000000001FC
0000000000000000000001FC
0000000000000000000003FC
0000000000000000000003F8
0000000000000000000007F8
0000000000000000000007F8
000000000000000000000FF0
000000000000000000000FF0
000000000000000000001FF0
000000000000000000001FE0
000000000000000000003FE0
000000000000000000003FC0
000000000000000000007FC0
000000000000000000007FC0
00000000000000000000FF80
00000000000000000000FF80
00000000000000000001FF80
00000000000000000001FF00
00000000000000000003FF00
00000000000000000003FF00
00000000000000000007FE00
00000000000000000007FE00
0000000000000000000FFC00
0000000000000000000FFC00
0000000000000000001FFC00
0000000000000000001FF800
0000000000000000003FF800
0000000000000000003FF800
0000000000000000007FF000
000000000000000000FFF000
000000000000000000FFE000
000000000000000001FFE000
000000000000000001FFE000
000000000000000003FFC000
000000000000000003FFC000
000000000000000007FFC000
000000000000000007FF8000
00000000000000000FFF8000
00000000000000000FFF8000
00000000000000001FFF0000
00000000000000001FFF0000
00000000000000003FFE0000
00000000000000003FFE0000
00000000000000007FFE0000
00000000000000007FFC0000
0000000000000000FFFC0000
0000000000000000FFFC0000
0000000000000001FFF80000
0000000000000001FFF80000
0000000000000003FFF80000
0000000000000003FFF00000
0000000000000007FFF00000
0000000000000007FFE00000
000000000000000FFFE00000
000000000000000FFFE00000
000000000000001FFFC00000
000000000000001FFFC00000
000000000000003FFFC00000
000000000000003FFF800000
000000000000007FFF800000
000000000000007FFF000000
00000000000000FFFF000000
00000000000000FFFF000000
00000000000001FFFE000000
00000000000001FFFE000000
0003FFFFFFFFFFFFFE000000
0007FFFFFFFFFFFFFC000000
001FFFFFFFFFFFFFFC000000
003FFFFFFFFFFFFFFC000000
007FFFFFFFFFFFFFF8000000
01FFFFFFFFFFFFFFF8000000
03FFFFFFFFFFFFFFF0000000
07FFFFFFFFFFFFFFF0000000
1FFFFFFFFFFFFFFFF0000000
3FFFFFFFFFFFFFFFE0000000
FFFFFFFFFFFFFFFFE0000000
ENDCHAR

STARTCHAR s
ENCODING 115
SWIDTH 1264 0
DWIDTH 126 0
BBX 109 79 2 0
BITMAP
0000000000000000000000000008
0000000000000000000000000010
0000000000000000000000000010
0000000000000000000000000010
0000000000000000000000000030
0000000000000000000000000030
0000000000000000000000000070
0000000000000000000000000070
0000000000000000000000000070
00000000000000000000000000F0
00000000000000000000000000F0
00000000000000000000000001F0
00000000000000000000000001F0
00000000000000000000000003F0
00000000000000000000000003F0
00000000000000000000000007F0
00000000000000000000000007F0
0000000000000000000000000FF0
0000000000000000000000000FF0
0000000000000000000000001FF0
0000000000000000000000001FF0
0000000000000000000000003FF0
0000000000000000000000003FF0
0000000000000000000000007FF0
000000000000000000000000FFF0
000000000000000000000000FFF0
000000000000000000000001FFF0
000000000000000000000003FFF0
000000000000000000000003FFF0
000000000000000000000007FFF0
00000000000000000000000FFFF0
00000000000000000000001FFFF0
00000000000000000000001FFFF0
00000000000000000000003FFFF0
00000000000000000000007FFFF0
0000000000000000000000FFFFF0
0000000000000000000001FFFFF0
0000000000000000000003FFFFF0
0000000000000000000007FFFFF0
000000000000000000000FFFFFF0
000000000000000000001FFFFFF0
000000000000000000003FFFFFF0
000000000000000000007FFFFFF0
00000000000000000000FFFFFFF0
00000000000000000001FFFFFFF0
00000000000000000003FFFFFFF0
00000000000000000007FFFFFFF0
0000000000000000000FFFFFFFF0
0000000000000000001FFFFFFFF0
0000000000000000003FFFFFFFF0
000000000000000000FFFFFFFFF0
000000000000000001FFFFFFFFF0
000000000000000003FFFFFFFFF0
000000000000000007FFFFFFFFF0
00000000000000000FFFFFFFFFF0
00000000000000003FFFFFFFFFF0
00000000000000007FFFFFFFFFF0
0000000000000001FFFFFFFFFFF0
0000000000000003FFFFFFFFFFF0
000000000000000FFFFFFFFFFFF0
000000000000001FFFFFFFFFFFF0
000000000000007FFFFFFFFFFFF0
00000000000001FFFFFFFFFFFFF0
00000000000003FFFFFFFFFFFFF0
0000000000000FFFFFFFFFFFFFF0
0000000000003FFFFFFFFFFFFFF0
000000000000FFFFFFFFFFFFFFF0
000000000003FFFFFFFFFFFFFFF0
00000000001FFFFFFFFFFFFFFFF0
0000000000FFFFFFFFFFFFFFFFF0
0000000007FFFFFFFFFFFFFFFFF0
000000003FFFFFFFFFFFFFFFFFF0
00000001FFFFFFFFFFFFFFFFFFF0
0000001FFFFFFFFFFFFFFFFFFFF0
000001FFFFFFFFFFFFFFFFFFFFF0
00003FFFFFFFFFFFFFFFFFFFFFF0
0007FFFFFFFFFFFFFFFFFFFFFFF0
01FFFFFFFFFFFFFFFFFFFFFFFFF0
FFFFFFFFFFFFFFFFFFFFFFFFFFF0
ENDCHAR

STARTCHAR t
ENCODING 116
SWIDTH 884 0
DWIDTH 88 0
BBX 59 49 5 9
BITMAP
FFFFFFFFFFFF8000
800000000000C000
800000000000E000
800000000000F000
800000000000F800
800000000000FC00
800000000000FE00
800000000000FF80
800000000000FFC0
800000000000FFE0
800000000000FFE0
800000000000FFE0
800000000000FFE0
800000000000FFE0
800000000000FFE0
800000000000FFE0
800000000000FFE0
800000000000FFE0
800000000000FFE0
800000000000FFE0
800000000000FFE0
800000000000FFE0
800000000000FFE0
800000000000FFE0
800000000000FFE0
800000000000FFE0
800000000000FFE0
800000000000FFE0
800000000000FFE0
800000000000FFE0
800000000000FFE0
800000000000FFE0
800000000000FFE0
800000000000FFE0
800000000000FFE0
800000000000FFE0
800000000000FFE0
800000000000FFE0
800000000000FFE0
FFFFFFFFFFFFFFE0
3FFFFFFFFFFFFFE0
1FFFFFFFFFFFFFE0
0FFFFFFFFFFFFFE0
03FFFFFFFFFFFFE0
01FFFFFFFFFFFFE0
00FFFFFFFFFFFFE0
007FFFFFFFFFFFE0
003FFFFFFFFFFFE0
000FFFFFFFFFFFE0
ENDCHAR

STARTCHAR u
ENCODING 117
SWIDTH 844 0
DWIDTH 84 0
BBX 52 46 5 16
BITMAP
FFFFFFFFFFFFF0
FFFFFFFFFFFFF0
FFFFFFFFFFFFF0
FFFFFFFFFFFFF0
FFFFFFFFFFFFF0
FFFFFFFFFFFFF0
FFFFFFFFFFFFF0
FFFFFFFFFFFFF0
FFFFFFFFFFFFF0
FFFFFFFFFFFFF0
FFFFFFFFFFFFF0
FFFFFFFFFFFFF0
FFFFFFFFFFFFF0
FFFFFFFFFFFFF0
FFFFFFFFFFFFF0
FFFFFFFFFFFFF0
FFFFFFFFFFFFF0
FFFFFFFFFFFFF0
FFFFFFFFFFFFF0
FFFFFFFFFFFFF0
FFFFFFFFFFFFF0
FFFFFFFFFFFFF0
FFFFFFFFFFFFF0
FFFFFFFFFFFFF0
FFFFFFFFFFFFF0
FFFFFFFFFFFFF0
FFFFFFFFFFFFF0
FFFFFFFFFFFFF0
FFFFFFFFFFFFF0
FFFFFFFFFFFFF0
FFFFFFFFFFFFF0
FFFFFFFFFFFFF0
FFFFFFFFFFFFF0
FFFFFFFFFFFFF0
FFFFFFFFFFFFF0
FFFFFFFFFFFFF0
FFFFFFFFFFFFF0
FFFFFFFFFFFFF0
FFFFFFFFFFFFF0
FFFFFFFFFFFFF0
FFFFFFFFFFFFF0
FFFFFFFFFFFFF0
FFFFFFFFFFFFF0
FFFFFFFFFFFFF0
FFFFFFFFFFFFF0
FFFFFFFFFFFFF0
ENDCHAR

STARTCHAR v
ENCODING 118
SWIDTH 1176 0
DWIDTH 118 0
BBX 89 38 5 16
BITMAP
FFFFFFFFFFFFFFFFFFFFFF80
FFFFFFFFFFFFFFFFFFFFFF80
FFFFFFFFFFFFFFFFFFFFFF80
FFFFFFFFFFFFFFFFFFFFFF80
FFFFFFFFFFFFFFFFFFFFFF80
FFFFFFFFFFFFFFFFFFFFFF80
FFFFFFFFFFFFFFFFFFFFFF80
FFFFFFFFFFFFFFFFFFFFFF80
FFFFFFFFFFFFFFFFFFFFFF80
FFFFFFFFFFFFFFFFFFFFFF80
FFFFFFFFFFFFFFFFFFFFFF80
FFFFFFFFFFFFFFFFFFFFFF80
FFFFFFFFFFFFFFFFFFFFFF80
FFFFFFFFFFFFFFFFFFFFFF80
FFFFFFFFFFFFFFFFFFFFFF80
FFFFFFFFFFFFFFFFFFFFFF80
FFFFFFFFFFFFFFFFFFFFFF80
FFFFFFFFFFFFFFFFFFFFFF80
FFFFFFFFFFFFFFFFFFFFFF80
FFFFFFFFFFFFFFFFFFFFFF80
FFFFFFFFFFFFFFFFFFFFFF80
FFFFFFFFFFFFFFFFFFFFFF80
FFFFFFFFFFFFFFFFFFFFFF80
FFFFFFFFFFFFFFFFFFFFFF80
FFFFFFFFFFFFFFFFFFFFFF80
FFFFFFFFFFFFFFFFFFFFFF80
FFFFFFFFFFFFFFFFFFFFFF80
FFFFFFFFFFFFFFFFFFFFFF80
FFFFFFFFFFFFFFFFFFFFFF80
FFFFFFFFFFFFFFFFFFFFFF80
FFFFFFFFFFFFFFFFFFFFFF80
FFFFFFFFFFFFFFFFFFFFFF80
FFFFFFFFFFFFFFFFFFFFFF80
FFFFFFFFFFFFFFFFFFFFFF80
FFFFFFFFFFFFFFFFFFFFFF80
FFFFFFFFFFFFFFFFFFFFFF80
FFFFFFFFFFFFFFFFFFFFFF80
FFFFFFFFFFFFFFFFFFFFFF80
ENDCHAR

STARTCHAR w
ENCODING 119
SWIDTH 1252 0
DWIDTH 125 0
BBX 99 47 1 10
BITMAP
FFFFFFFFFFFFF0FFFE3FE1F8E0
FFFFFFFFFFFFF0FFFE3FE1F8E0
FFFFFFFFFFFFF0FFFE3FE1F8E0
FFFFFFFFFFFFF0FFFE3FE1F8E0
FFFFFFFFFFFFF0FFFE3FE1F8E0
FFFFFFFFFFFFF0FFFE3FE1F8E0
FFFFFFFFFFFFF0FFFE3FE1F8E0
FFFFFFFFFFFFF0FFFE3FE1F8E0
FFFFFFFFFFFFF0FFFE3FE1F8E0
FFFFFFFFFFFFF0FFFE3FE1F8E0
FFFFFFFFFFFFF0FFFE3FE1F8E0
FFFFFFFFFFFFF0FFFE3FE1F8E0
FFFFFFFFFFFFF0FFFE3FE1F8E0
FFFFFFFFFFFFF0FFFE3FE1F8E0
FFFFFFFFFFFFF0FFFE3FE1F8E0
FFFFFFFFFFFFF0FFFE3FE1F8E0
FFFFFFFFFFFFF0FFFE3FE1F8E0
FFFFFFFFFFFFF0FFFE3FE1F8E0
FFFFFFFFFFFFF0FFFE3FE1F8E0
FFFFFFFFFFFFF0FFFE3FE1F8E0
FFFFFFFFFFFFF0FFFE3FE1F8E0
FFFFFFFFFFFFF0FFFE3FE1F8E0
FFFFFFFFFFFFF0FFFE3FE1F8E0
FFFFFFFFFFFFF0FFFE3FE1F8E0
FFFFFFFFFFFFF0FFFE3FE1F8E0
FFFFFFFFFFFFF0FFFE3FE1F8E0
FFFFFFFFFFFFF0FFFE3FE1F8E0
FFFFFFFFFFFFF0FFFE3FE1F8E0
FFFFFFFFFFFFF0FFFE3FE1F8E0
FFFFFFFFFFFFF0FFFE3FE1F8E0
FFFFFFFFFFFFF0FFFE3FE1F8E0
FFFFFFFFFFFFF0FFFE3FE1F8E0
FFFFFFFFFFFFF0FFFE3FE1F8E0
FFFFFFFFFFFFF0FFFE3FE1F8E0
FFFFFFFFFFFFF0FFFE3FE1F8E0
FFFFFFFFFFFFF0FFFE3FE1F8E0
FFFFFFFFFFFFF0FFFE3FE1F8E0
FFFFFFFFFFFFF0FFFE3FE1F8E0
FFFFFFFFFFFFF0FFFE3FE1F8E0
FFFFFFFFFFFFF0FFFE3FE1F8E0
FFFFFFFFFFFFF0FFFE3FE1F8E0
FFFFFFFFFFFFF0FFFE3FE1F8E0
FFFFFFFFFFFFF0FFFE3FE1F8E0
FFFFFFFFFFFFF0FFFE3FE1F8E0
FFFFFFFFFFFFF0FFFE3FE1F8E0
FFFFFFFFFFFFF0FFFE3FE1F8E0
FFFFFFFFFFFFF0FFFE3FE1F8E0
ENDCHAR

STARTCHAR x
ENCODING 120
SWIDTH 1244 0
DWIDTH 124 0
BBX 104 75 1 -4
BITMAP
00000000000000000002000000
00000000000000000002000000
00000000000000000002000000
00000000000000000003000000
00000000000000000003800000
00000000000000000003C00000
00000000000000000003C00000
00000000000000000003E00000
00000000000000000003F00000
00000000000000000003F00000
00000000000000000003F80000
00000000000000000003FC0000
00000000000000000003FC0000
00000000000000000003FE0000
E3F1FF0FFFE1FFFFFFFFFF0000
E3F1FF0FFFE1FFFFFFFFFF8000
E3F1FF0FFFE1FFFFFFFFFF8000
E3F1FF0FFFE1FFFFFFFFFFC000
E3F1FF0FFFE1FFFFFFFFFFE000
E3F1FF0FFFE1FFFFFFFFFFE000
E3F1FF0FFFE1FFFFFFFFFFF000
E3F1FF0FFFE1FFFFFFFFFFF800
E3F1FF0FFFE1FFFFFFFFFFF800
E3F1FF0FFFE1FFFFFFFFFFFC00
E3F1FF0FFFE1FFFFFFFFFFFE00
E3F1FF0FFFE1FFFFFFFFFFFF00
E3F1FF0FFFE1FFFFFFFFFFFF00
E3F1FF0FFFE1FFFFFFFFFFFF80
E3F1FF0FFFE1FFFFFFFFFFFFC0
E3F1FF0FFFE1FFFFFFFFFFFFC0
E3F1FF0FFFE1FFFFFFFFFFFFE0
E3F1FF0FFFE1FFFFFFFFFFFFF0
E3F1FF0FFFE1FFFFFFFFFFFFF0
E3F1FF0FFFE1FFFFFFFFFFFFF8
E3F1FF0FFFE1FFFFFFFFFFFFFC
E3F1FF0FFFE1FFFFFFFFFFFFFE
E3F1FF0FFFE1FFFFFFFFFFFFFE
E3F1FF0FFFE1FFFFFFFFFFFFFF
E3F1FF0FFFE1FFFFFFFFFFFFFF
E3F1FF0FFFE1FFFFFFFFFFFFFE
E3F1FF0FFFE1FFFFFFFFFFFFFC
E3F1FF0FFFE1FFFFFFFFFFFFF8
E3F1FF0FFFE1FFFFFFFFFFFFF8
E3F1FF0FFFE1FFFFFFFFFFFFF0
E3F1FF0FFFE1FFFFFFFFFFFFE0
E3F1FF0FFFE1FFFFFFFFFFFFE0
E3F1FF0FFFE1FFFFFFFFFFFFC0
E3F1FF0FFFE1FFFFFFFFFFFF80
E3F1FF0FFFE1FFFFFFFFFFFF80
E3F1FF0FFFE1FFFFFFFFFFFF00
E3F1FF0FFFE1FFFFFFFFFFFE00
E3F1FF0FFFE1FFFFFFFFFFFC00
E3F1FF0FFFE1FFFFFFFFFFFC00
E3F1FF0FFFE1FFFFFFFFFFF800
E3F1FF0FFFE1FFFFFFFFFFF000
E3F1FF0FFFE1FFFFFFFFFFF000
E3F1FF0FFFE1FFFFFFFFFFE000
E3F1FF0FFFE1FFFFFFFFFFC000
E3F1FF0FFFE1FFFFFFFFFF8000
E3F1FF0FFFE1FFFFFFFFFF8000
00000000000000000003FF0000
00000000000000000003FE0000
00000000000000000003FE0000
00000000000000000003FC0000
00000000000000000003F80000
00000000000000000003F80000
00000000000000000003F00000
00000000000000000003E00000
00000000000000000003C00000
00000000000000000003C00000
00000000000000000003800000
00000000000000000003000000
00000000000000000003000000
00000000000000000002000000
00000000000000000002000000
ENDCHAR

STARTCHAR y
ENCODING 121
SWIDTH 864 0
DWIDTH 86 0
BBX 64 44 0 12
BITMAP
FFFFFFFFFFFFFFE3
FFFFFFFFFFFFFFE3
C00003FFFFFFFFE3
C00003FFFFFFFFE3
C00003FFFFFFFFE3
C00003FFFFFFFFE3
C00003FFFFFFFFE3
C00003FFFFFFFFE3
C00003FFFFFFFFE3
C00003FFFFFFFFE3
C00003FFFFFFFFE3
C00003FFFFFFFFE3
C00003FFFFFFFFE3
C00003FFFFFFFFE3
C00003FFFFFFFFE3
C00003FFFFFFFFE3
C00003FFFFFFFFE3
C00003FFFFFFFFE3
C00003FFFFFFFFE3
C00003FFFFFFFFE3
C00003FFFFFFFFE3
C00003FFFFFFFFE3
C00003FFFFFFFFE3
C00003FFFFFFFFE3
C00003FFFFFFFFE3
C00003FFFFFFFFE3
C00003FFFFFFFFE3
C00003FFFFFFFFE3
C00003FFFFFFFFE3
C00003FFFFFFFFE3
C00003FFFFFFFFE3
C00003FFFFFFFFE3
C00003FFFFFFFFE3
C00003FFFFFFFFE3
C00003FFFFFFFFE3
C00003FFFFFFFFE3
C00003FFFFFFFFE3
C00003FFFFFFFFE3
C00003FFFFFFFFE3
C00003FFFFFFFFE3
C00003FFFFFFFFE3
C00003FFFFFFFFE3
FFFFFFFFFFFFFFE3
FFFFFFFFFFFFFFE3
ENDCHAR

STARTCHAR z
ENCODING 122
SWIDTH 704 0
DWIDTH 70 0
BBX 48 44 0 12
BITMAP
FFFFFFFFFFFF
FFFFFFFFFFFF
C00000000003
C00000000003
C00000000003
C00000000003
C00000000003
C00000000003
C00000000003
C00000000003
C00000000003
C00000000003
C00000000003
C00000000003
C00000000003
C00000000003
C00000000003
C00000000003
C00000000003
C00000000003
C00000000003
C00000000003
C00000000003
C00000000003
C00000000003
C00000000003
C00000000003
C00000000003
C00000000003
C00000000003
C00000000003
C00000000003
C00000000003
C00000000003
C00000000003
C00000000003
C00000000003
C00000000003
C00000000003
C00000000003
C00000000003
C00000000003
FFFFFFFFFFFF
FFFFFFFFFFFF
ENDCHAR
ENDFONT
